<?xml version="1.0" standalone="no"?>
<!DOCTYPE svg PUBLIC "-//W3C//DTD SVG 20010904//EN"
 "http://www.w3.org/TR/2001/REC-SVG-20010904/DTD/svg10.dtd">
<svg version="1.0" xmlns="http://www.w3.org/2000/svg"
 width="282.000000pt" height="320.000000pt" viewBox="0 0 282.000000 320.000000"
 preserveAspectRatio="xMidYMid meet">

<g transform="translate(0.000000,320.000000) scale(0.100000,-0.100000)"
fill="#000000" stroke="none">
<path d="M50 1815 l0 -1355 1348 0 1347 0 -2 1352 -3 1353 -1345 2 -1345 3 0
-1355z m330 1145 l0 -141 -132 3 -133 3 -3 124 c-1 69 0 131 2 138 4 10 38 13
136 13 l130 0 0 -140z m1968 3 l-3 -138 -955 0 -955 0 -3 138 -3 137 961 0
961 0 -3 -137z m332 -3 l0 -141 -137 3 -138 3 -3 138 -3 137 141 0 140 0 0
-140z m-1385 -181 c4 -6 1 -10 -6 -8 -42 5 -90 -3 -105 -18 -10 -10 -28 -19
-41 -20 -12 -1 -33 -9 -45 -17 -12 -9 -30 -16 -39 -16 -10 0 -27 -12 -39 -27
-40 -51 -100 -71 -100 -33 0 12 -9 24 -22 29 -13 5 -33 19 -45 30 -25 24 -38
21 -100 -26 -21 -17 -39 -22 -52 -18 -15 4 -28 -1 -46 -21 -29 -31 -30 -39
-10 -74 12 -23 11 -27 -13 -52 -19 -21 -35 -28 -63 -28 -20 0 -42 -7 -49 -15
-17 -20 -40 -18 -67 4 -22 18 -23 26 -23 165 l0 146 413 3 c226 1 420 3 429 5
9 1 20 -3 23 -9z m-915 -974 l0 -976 -132 3 -133 3 -3 973 -2 972 135 0 135 0
0 -975z m1970 709 c0 -208 -3 -265 -12 -261 -7 2 -13 10 -13 18 -1 19 -14 39
-26 39 -6 0 -8 -9 -4 -19 3 -11 1 -22 -5 -26 -14 -9 -43 30 -50 65 -4 18 -12
25 -29 25 -14 0 -26 -6 -28 -12 -3 -7 2 -13 11 -13 21 0 20 -9 -4 -40 -23 -30
-25 -40 -6 -40 19 0 32 -110 14 -122 -20 -13 -42 -5 -53 19 -10 22 -54 37 -81
26 -13 -5 -15 -2 -9 15 5 19 3 22 -17 20 -18 -3 -23 1 -21 20 2 16 -2 22 -17
22 -25 0 -26 17 -1 25 13 4 17 12 14 26 -5 18 -6 19 -19 2 -10 -14 -15 -16
-25 -6 -10 10 -9 16 7 28 19 14 19 14 -3 15 -33 0 -37 18 -6 22 19 2 32 12 41
31 7 15 17 27 23 27 12 0 12 -27 -1 -35 -16 -10 -12 -28 5 -22 21 9 31 -14 12
-28 -15 -11 -14 -55 2 -55 13 0 48 95 39 107 -5 7 -5 14 2 18 5 3 10 18 10 32
0 22 -3 24 -25 19 -20 -5 -27 -1 -41 25 -13 27 -20 30 -45 25 -26 -5 -29 -3
-24 17 4 15 -5 34 -29 62 -31 37 -35 39 -60 27 -43 -19 -56 -15 -56 17 0 16
-6 31 -15 35 -14 5 -19 -5 -16 -31 1 -7 -2 -13 -8 -13 -5 0 -11 6 -14 13 -3 9
-7 9 -20 -2 -21 -17 -47 -7 -47 18 0 28 -19 36 -38 17 -15 -15 -14 -16 8 -16
l25 0 -30 -25 c-16 -13 -27 -25 -22 -26 4 -1 12 -2 17 -3 13 -1 14 -20 2 -24
-14 -4 -30 20 -34 53 -2 22 -8 30 -23 30 -11 0 -30 4 -43 9 -19 6 -22 13 -17
36 5 24 3 29 -12 28 -25 -1 -172 28 -203 41 -17 7 138 10 498 10 l522 1 0
-266z m330 -709 l0 -976 -137 3 -138 3 -3 973 -2 972 140 0 140 0 0 -975z
m-1365 947 c11 -4 21 -15 22 -25 0 -11 -4 -16 -12 -13 -16 6 -45 -24 -45 -47
0 -9 -7 -17 -16 -17 -8 0 -12 -4 -9 -10 9 -15 35 -12 35 3 0 8 9 22 20 32 18
17 20 16 44 -11 18 -21 24 -36 21 -54 -5 -23 -4 -23 8 -8 8 10 24 19 37 20 30
4 39 -22 11 -29 -26 -7 -23 -24 8 -39 19 -10 20 -12 5 -18 -15 -6 -15 -8 2
-27 15 -17 16 -22 4 -29 -10 -6 -11 -12 -3 -22 9 -10 10 -61 4 -132 -1 -10
-16 1 -16 12 -1 4 -6 17 -13 29 -10 18 -9 23 5 31 14 9 15 13 4 26 -15 18 -32
21 -28 5 1 -6 -4 -14 -10 -16 -19 -7 -16 23 3 42 11 11 13 20 7 26 -7 7 -13 2
-17 -16 -6 -22 -9 -25 -21 -15 -22 19 -18 39 10 50 24 9 36 40 15 40 -5 0 -10
-4 -10 -10 0 -5 -7 -10 -16 -10 -12 0 -15 7 -12 25 4 21 1 25 -19 25 -15 0
-27 8 -33 23 -8 21 -9 21 -9 1 -1 -29 -10 -34 -36 -22 -15 7 -21 16 -17 26 4
12 1 14 -13 9 -23 -10 -45 9 -45 39 0 17 6 24 20 24 12 0 20 -7 20 -17 0 -13
3 -14 12 -5 8 8 9 21 1 46 -12 39 -9 46 19 46 11 0 16 5 13 10 -7 11 19 12 50
2z m109 -44 c-3 -10 0 -25 6 -33 22 -26 -16 -18 -46 10 -34 31 -27 53 15 47
26 -4 30 -8 25 -24z m-289 -18 c3 -5 1 -10 -4 -10 -6 0 -11 5 -11 10 0 6 2 10
4 10 3 0 8 -4 11 -10z m361 -12 c8 -12 -24 -40 -37 -33 -4 3 -5 14 -2 25 6 22
28 27 39 8z m-666 -17 c0 -17 -27 -37 -37 -27 -6 6 20 46 29 46 5 0 8 -9 8
-19z m245 -11 c7 -23 18 -25 46 -9 15 7 24 7 35 -1 18 -15 9 -31 -13 -23 -13
5 -15 2 -10 -11 4 -10 7 -19 7 -22 0 -2 13 -1 29 2 23 5 30 2 35 -13 4 -11 18
-25 31 -31 25 -12 33 -49 19 -86 -9 -23 -34 -1 -34 29 0 13 -6 22 -15 22 -20
0 -19 -5 5 -45 l21 -33 -23 3 c-18 2 -22 9 -20 29 1 15 -4 32 -13 39 -8 7 -15
19 -15 27 0 13 -3 13 -16 3 -8 -8 -20 -22 -25 -32 -9 -17 -7 -19 18 -16 38 4
43 -26 7 -45 l-27 -14 23 -21 c21 -20 24 -20 35 -5 14 19 35 9 35 -18 0 -10 9
-24 20 -31 25 -16 26 -31 1 -23 -13 4 -20 1 -23 -11 -4 -25 -149 -32 -168 -9
-12 14 -15 14 -30 0 -15 -14 -18 -14 -30 0 -17 21 -12 24 44 27 29 1 50 7 53
15 7 19 40 16 55 -5 13 -18 31 -22 43 -10 4 3 -4 9 -17 13 -13 4 -25 11 -28
16 -3 5 -15 10 -25 12 -11 1 -35 10 -53 20 -26 13 -33 13 -29 3 3 -8 -1 -22
-8 -33 -13 -16 -16 -16 -25 -3 -6 8 -8 25 -5 36 3 14 -1 24 -10 28 -8 3 -15
12 -15 19 0 8 -10 21 -22 30 -37 24 -14 30 28 6 22 -11 44 -25 50 -30 6 -5 25
-6 43 -3 24 5 31 3 31 -10 0 -9 5 -16 10 -16 18 0 11 29 -10 40 -13 7 -20 22
-21 43 -1 30 -1 30 -8 7 -10 -35 -44 -38 -59 -5 -10 21 -16 24 -37 19 -27 -7
-35 12 -13 34 9 9 9 12 0 12 -10 0 -10 5 -2 21 14 26 35 19 35 -12 0 -14 6
-24 15 -24 8 0 14 6 13 13 -5 20 15 14 22 -8 7 -22 22 -25 45 -10 12 8 9 10
-12 10 -31 0 -38 25 -15 49 10 10 9 14 -5 22 -19 11 -14 39 7 39 8 0 17 -9 20
-20z m-305 -20 c0 -5 -4 -10 -10 -10 -5 0 -10 5 -10 10 0 6 5 10 10 10 6 0 10
-4 10 -10z m120 -24 c0 -21 6 -36 15 -40 20 -7 19 -32 -1 -40 -9 -3 -14 -12
-11 -20 4 -9 -4 -13 -24 -14 -27 -1 -29 2 -29 37 0 22 -6 44 -15 51 -8 7 -15
17 -15 23 0 15 33 36 58 37 18 0 22 -5 22 -34z m-189 -2 c9 -26 10 -26 31 -8
15 14 22 16 25 7 3 -7 11 -13 19 -13 16 0 16 -6 4 -35 -5 -11 -9 -14 -9 -7 -1
19 -31 14 -32 -5 0 -14 -3 -13 -11 5 -7 13 -20 22 -35 22 -17 0 -23 6 -23 23
0 21 7 37 17 37 2 0 8 -12 14 -26z m849 17 c0 -17 -18 -21 -24 -6 -3 9 0 15 9
15 8 0 15 -4 15 -9z m-42 -22 c2 -10 -6 -19 -19 -22 -31 -8 -41 1 -28 24 12
23 42 22 47 -2z m90 -34 c-1 -19 0 -36 2 -37 3 -2 14 -8 25 -14 11 -6 22 -21
23 -34 4 -23 4 -23 -23 -6 -22 14 -32 15 -57 7 -39 -14 -47 -7 -23 19 10 11
18 35 18 53 0 35 14 60 28 51 5 -3 8 -21 7 -39z m152 13 c0 -33 -14 -51 -36
-46 -24 4 -32 38 -9 38 8 0 18 7 21 15 9 23 24 18 24 -7z m110 -13 c0 -15 -6
-25 -14 -25 -22 0 -30 19 -16 35 18 22 30 18 30 -10z m-546 -21 c21 -20 20
-37 -2 -51 -28 -17 -45 -1 -37 36 7 35 16 38 39 15z m236 6 c0 -5 -4 -10 -10
-10 -5 0 -10 5 -10 10 0 6 5 10 10 10 6 0 10 -4 10 -10z m123 4 c9 -10 -4 -34
-19 -34 -8 0 -14 6 -14 13 0 22 19 35 33 21z m-173 -24 c0 -11 5 -20 11 -20 6
0 8 -9 4 -20 -8 -25 2 -60 17 -60 6 0 19 7 29 16 11 10 19 12 24 5 3 -6 1 -11
-4 -11 -6 0 -11 -4 -11 -10 0 -5 7 -10 15 -10 21 0 19 -13 -4 -27 -11 -7 -21
-24 -23 -39 -2 -15 -9 -30 -17 -32 -11 -4 -13 4 -8 37 5 41 5 42 -13 26 -13
-11 -26 -14 -41 -10 -23 8 -23 8 -3 24 16 13 20 25 16 56 -3 22 -9 43 -14 46
-12 8 -1 49 13 49 5 0 9 -9 9 -20z m310 10 c0 -12 -28 -25 -36 -17 -9 9 6 27
22 27 8 0 14 -5 14 -10z m-1028 -43 c-2 -19 2 -27 13 -27 8 0 24 -6 35 -12 16
-10 24 -10 40 0 26 16 43 7 35 -19 -4 -13 -2 -19 9 -19 21 0 29 -17 17 -39 -8
-14 -6 -22 9 -36 11 -10 20 -30 20 -43 l0 -26 -21 22 c-11 12 -24 20 -28 17
-11 -6 -36 23 -28 32 4 3 2 12 -4 20 -9 10 -15 10 -25 2 -15 -12 -34 -4 -34
15 0 23 -30 40 -66 38 -19 -2 -34 2 -34 8 0 5 -4 10 -10 10 -5 0 -10 -7 -10
-15 0 -17 -16 -20 -25 -6 -8 15 -18 91 -11 91 4 0 11 -11 16 -25 10 -25 26
-30 68 -19 26 7 29 19 6 28 -8 3 -23 -1 -31 -10 -11 -10 -19 -12 -26 -5 -21
21 27 52 73 47 10 -1 14 -11 12 -29z m1055 15 c-10 -10 -17 -27 -17 -38 0 -11
-9 -25 -20 -32 -18 -11 -20 -10 -20 14 0 16 11 36 26 50 29 28 55 32 31 6z
m-107 -2 c13 -9 13 -11 0 -20 -9 -6 -15 -25 -15 -51 0 -25 -5 -44 -13 -46 -8
-3 -10 1 -5 14 6 15 5 16 -9 5 -22 -18 -33 1 -29 48 5 55 33 75 71 50z m196
-1 c9 -16 -18 -30 -33 -17 -7 6 -10 14 -7 19 7 13 31 11 40 -2z m-58 -21 c18
-18 15 -28 -8 -28 -13 0 -20 7 -20 20 0 23 10 26 28 8z m144 -28 c-6 -11 -12
-33 -12 -50 0 -30 -21 -42 -35 -20 -4 6 -10 8 -15 5 -4 -3 -13 1 -19 9 -9 11
-8 18 4 30 9 9 22 16 29 16 7 0 19 11 26 25 9 18 17 22 24 15 7 -7 7 -16 -2
-30z m-692 -10 c-9 -17 -14 -20 -20 -9 -6 8 -2 17 8 25 22 16 26 11 12 -16z
m450 10 c0 -13 -28 -25 -38 -16 -3 4 0 11 8 16 20 13 30 12 30 0z m-1203 -34
c-4 -9 -11 -16 -17 -16 -17 0 -24 31 -9 41 18 11 34 -5 26 -25z m1343 -2 c0
-16 -16 -19 -25 -4 -8 13 4 32 16 25 5 -4 9 -13 9 -21z m-1460 6 c0 -5 -4 -10
-10 -10 -5 0 -10 5 -10 10 0 6 5 10 10 10 6 0 10 -4 10 -10z m167 -5 c-4 -8
-2 -17 3 -20 6 -4 10 1 10 9 0 9 5 16 10 16 6 0 10 -11 10 -25 0 -22 3 -25 25
-19 19 5 25 2 25 -9 0 -9 -11 -24 -25 -35 -14 -11 -25 -27 -25 -35 0 -18 -18
-32 -28 -23 -3 4 -1 16 6 26 17 27 15 30 -12 30 -19 0 -25 7 -30 35 -5 23 -2
40 6 50 17 19 32 19 25 0z m740 -19 c-5 -32 -3 -35 23 -41 35 -8 47 -41 17
-49 -12 -3 -26 -1 -33 5 -6 5 -19 7 -28 3 -9 -3 -23 -1 -31 6 -8 7 -22 10 -30
6 -28 -10 -29 24 -2 51 31 32 51 22 43 -19 -5 -27 -4 -29 10 -17 10 8 14 22
10 39 -3 15 0 32 7 39 18 18 20 14 14 -23z m499 -8 c-5 -34 -4 -38 4 -20 14
33 29 19 21 -20 -5 -26 -3 -37 14 -50 19 -17 19 -19 3 -32 -29 -21 -21 -28 23
-21 40 7 41 6 34 -16 -7 -22 -6 -22 9 -10 20 17 31 7 39 -36 4 -21 1 -35 -9
-44 -17 -14 -16 -15 -43 39 -18 35 -26 42 -49 41 -20 -1 -22 -2 -7 -6 33 -8
38 -19 25 -58 -11 -34 -15 -37 -43 -31 -33 7 -57 -7 -57 -33 1 -14 2 -14 11 2
11 18 39 24 39 7 0 -5 15 -1 34 9 23 13 37 16 44 9 16 -16 3 -38 -23 -38 -22
0 -81 -39 -59 -40 5 0 16 6 22 12 10 10 15 10 22 -2 6 -8 8 -21 5 -27 -2 -7
-3 -13 -1 -13 3 0 11 -3 20 -6 11 -4 15 4 18 38 3 38 6 43 28 43 18 0 24 5 22
18 -2 9 2 17 8 17 5 0 10 -4 10 -10 0 -5 7 -10 16 -10 11 0 15 -6 11 -19 -3
-15 4 -21 34 -30 22 -7 39 -17 39 -22 0 -6 8 -8 17 -5 9 4 20 1 25 -6 6 -10
10 -10 18 2 15 23 12 30 -14 30 -14 0 -27 4 -31 10 -3 5 -12 7 -20 3 -22 -8
-45 4 -39 21 12 30 94 27 94 -3 0 -10 8 -18 18 -18 58 1 74 -4 79 -23 4 -14
11 -19 23 -15 12 4 20 0 23 -12 4 -17 5 -17 6 0 0 9 -7 25 -18 36 -25 25 -12
48 18 30 18 -12 21 -23 21 -75 0 -45 -4 -63 -15 -68 -8 -3 -12 -12 -9 -19 3
-9 -3 -17 -18 -20 -30 -8 -64 23 -54 50 7 17 8 17 22 -1 13 -19 14 -19 14 7 0
28 -1 29 -75 30 -16 0 -32 4 -35 8 -3 4 -12 4 -20 -1 -13 -8 -11 -12 7 -25 19
-13 21 -19 11 -35 -10 -15 -15 -16 -26 -7 -11 9 -18 7 -33 -12 -10 -12 -23
-20 -29 -16 -5 3 -10 -1 -10 -9 0 -22 -9 -20 -30 6 -13 17 -16 28 -8 41 7 13
5 26 -8 45 -10 15 -18 38 -18 52 -1 17 -7 26 -21 28 -18 2 -18 2 -2 -8 24 -15
21 -36 -5 -44 -22 -6 -22 -7 10 -27 17 -12 32 -25 32 -30 0 -18 -34 -22 -60
-7 -21 12 -28 12 -38 1 -19 -19 -30 -16 -45 14 -14 26 -15 26 -26 6 -10 -19
-6 -24 35 -48 41 -24 44 -28 30 -43 -8 -10 -15 -21 -16 -27 -2 -13 -38 -26
-44 -16 -3 4 -1 22 4 40 5 19 5 31 -1 31 -5 0 -9 -6 -9 -14 0 -35 -40 -39 -53
-6 -4 10 -6 9 -6 -6 -1 -14 12 -30 39 -48 22 -14 40 -33 40 -41 0 -8 7 -15 16
-15 12 0 15 -6 10 -24 -7 -28 8 -43 53 -52 32 -7 50 -28 37 -42 -4 -3 -16 0
-28 7 -19 11 -23 11 -37 -6 -9 -11 -24 -23 -35 -27 -15 -5 -18 -2 -14 18 4 18
0 26 -14 29 -10 3 -18 1 -18 -4 0 -18 -32 -9 -37 11 -4 16 -9 18 -25 9 -28
-15 -44 -5 -43 27 0 19 6 30 20 34 11 3 21 15 22 26 2 19 -5 23 -44 30 -39 8
-48 13 -54 36 -4 18 -3 31 5 37 14 12 26 5 26 -16 0 -8 7 -21 15 -29 8 -9 15
-12 15 -7 0 5 -5 14 -12 21 -13 13 5 42 27 42 7 0 18 7 25 15 7 8 21 15 31 15
23 0 24 13 4 30 -12 10 -13 15 -3 28 11 13 10 14 -2 10 -17 -5 -50 21 -50 40
0 11 8 13 31 8 28 -5 30 -4 18 10 -7 9 -21 13 -34 10 -16 -4 -25 0 -33 17 -8
17 -11 18 -11 5 -1 -9 -9 -19 -18 -21 -15 -4 -15 -6 5 -12 12 -4 22 -12 22
-17 0 -5 12 -25 26 -44 25 -32 26 -35 10 -59 -23 -36 -50 -23 -43 21 5 29 3
34 -13 34 -10 0 -27 -13 -37 -30 -19 -32 -33 -39 -33 -16 0 16 -26 46 -41 46
-5 0 0 -9 12 -21 16 -16 18 -23 8 -35 -14 -17 -56 -19 -62 -1 -2 6 0 22 6 34
13 30 1 71 -20 69 -11 0 -19 7 -21 20 -2 14 -12 24 -26 26 -20 4 -26 -1 -36
-33 -13 -38 -7 -64 12 -53 6 4 6 10 -1 17 -18 18 -13 27 15 27 21 0 24 -4 19
-20 -3 -11 -2 -20 3 -20 6 0 12 5 14 12 6 16 38 2 38 -17 0 -8 -6 -15 -13 -15
-17 0 -17 -68 1 -75 6 -2 12 -12 12 -20 0 -9 -5 -13 -11 -9 -14 9 -59 -16 -59
-33 0 -8 7 -6 21 8 14 14 24 17 33 10 6 -6 21 -8 32 -6 10 2 34 6 53 9 l34 6
-6 -39 c-5 -37 -3 -39 13 -28 15 8 25 8 44 -3 l26 -13 -20 -22 c-11 -12 -20
-33 -20 -47 0 -28 34 -66 45 -49 8 13 25 14 25 2 0 -5 -12 -12 -26 -15 -18 -5
-23 -10 -16 -19 5 -7 9 -19 9 -27 1 -8 4 -24 8 -35 6 -19 6 -19 -8 -2 -8 9
-19 17 -26 17 -6 0 -11 7 -11 16 0 8 -4 13 -9 10 -15 -10 -43 5 -37 20 3 7 0
15 -7 17 -8 3 -4 13 11 30 13 14 19 28 14 31 -6 3 -12 -1 -16 -9 -7 -20 -36
-19 -36 1 0 12 -6 15 -22 10 -31 -9 -76 -16 -60 -10 23 10 13 31 -13 26 -16
-3 -27 1 -31 11 -5 14 -9 14 -41 1 -27 -12 -38 -12 -49 -3 -7 6 -11 16 -8 21
4 6 2 13 -4 17 -6 4 -17 31 -25 60 -8 30 -22 60 -31 67 -28 20 -16 48 22 52
37 4 52 -18 31 -44 -11 -14 -10 -19 10 -35 17 -14 22 -25 17 -44 -6 -24 -5
-24 20 -13 14 7 21 14 15 16 -16 5 -13 20 9 42 26 26 25 38 -2 42 -18 2 -22 9
-20 31 2 18 -2 27 -12 27 -8 0 -22 8 -31 17 -16 16 -16 18 5 35 18 15 19 18 5
18 -12 0 -16 7 -13 31 4 41 34 61 52 37 16 -22 29 -12 16 13 -12 21 3 35 23
22 6 -4 22 -6 34 -5 11 2 24 -2 28 -8 3 -5 11 -8 16 -5 5 4 9 2 9 -2 0 -5 -9
-14 -20 -21 -29 -18 -26 -34 5 -22 23 9 45 -3 31 -17 -3 -3 1 -15 9 -25 7 -11
11 -28 8 -37 -5 -13 -3 -14 8 -3 18 17 26 15 32 -8 3 -11 11 -20 17 -20 10 0
10 3 1 14 -9 11 -9 19 0 33 10 16 7 24 -15 48 -14 15 -26 32 -26 36 0 5 -9 9
-20 9 -16 0 -18 4 -11 23 12 31 37 33 45 3 4 -17 11 -23 21 -20 20 8 19 24 0
24 -11 0 -14 7 -9 25 6 26 -4 33 -23 14 -6 -6 -16 -8 -22 -5 -19 12 -12 43 13
59 17 12 22 22 19 40 -3 14 0 28 7 32 17 10 20 3 24 -49 2 -25 8 -52 14 -59 5
-6 11 -19 14 -27 3 -10 17 -15 40 -15 l35 0 -5 48 c-4 42 -2 47 15 47 27 0 34
-9 22 -31 -8 -15 -6 -19 6 -19 13 0 15 9 11 55 -2 30 0 57 5 61 6 3 4 11 -5
17 -30 24 -15 97 20 97 13 0 15 -8 10 -42z m-1358 4 c2 -12 -1 -22 -7 -22 -16
0 -22 18 -9 23 10 4 9 8 -2 17 -13 10 -13 11 0 7 8 -2 16 -13 18 -25z m767 18
c3 -5 1 -10 -4 -10 -6 0 -11 5 -11 10 0 6 2 10 4 10 3 0 8 -4 11 -10z m-512
-30 c14 -11 32 -20 41 -20 30 0 16 -18 -19 -24 -37 -7 -59 -1 -50 14 3 5 1 19
-5 30 -14 26 0 26 33 0z m41 -1 c-3 -5 -10 -7 -15 -3 -5 3 -7 10 -3 15 3 5 10
7 15 3 5 -3 7 -10 3 -15z m956 -3 c0 -18 6 -26 22 -28 34 -5 34 -27 -1 -34
-21 -4 -31 -12 -31 -24 0 -30 -24 -42 -39 -19 -10 18 -10 24 6 41 18 20 18 20
-14 13 -18 -3 -33 -3 -33 2 1 25 46 50 53 30 3 -7 8 0 12 16 9 34 25 36 25 3z
m-1195 3 c4 -5 0 -18 -9 -28 -21 -23 -11 -51 18 -51 12 0 25 -9 31 -22 10 -24
25 -26 83 -13 27 6 32 5 32 -12 0 -10 -5 -24 -12 -31 -9 -9 -9 -12 0 -13 26
-3 31 -4 38 -11 13 -14 19 -8 19 19 0 18 -11 38 -34 59 -21 19 -31 35 -27 43
6 9 18 2 40 -23 17 -20 39 -36 49 -36 19 0 23 -15 7 -25 -5 -3 -10 -12 -10
-18 0 -7 7 -3 15 7 15 20 15 20 30 0 8 -10 15 -22 15 -25 0 -13 -28 -29 -42
-24 -9 4 -18 -1 -22 -11 -5 -12 -14 -15 -40 -10 -38 7 -62 -12 -27 -21 23 -6
29 -23 8 -23 -7 0 -18 -9 -25 -20 -13 -22 -20 -24 -40 -11 -12 7 -11 14 2 40
9 17 14 31 11 31 -12 0 -20 -6 -18 -12 5 -15 -15 -8 -21 7 -3 9 -14 15 -23 13
-12 -2 -19 6 -23 27 -4 24 -10 29 -27 27 -23 -3 -40 13 -23 23 16 10 12 25 -5
19 -8 -4 -15 -15 -15 -25 0 -12 -7 -19 -20 -19 -24 0 -25 13 -4 45 10 15 12
25 5 25 -6 0 -11 -5 -11 -11 0 -6 -8 -9 -17 -7 -14 2 -18 14 -19 50 l-1 46 32
-5 c27 -4 36 -1 47 16 14 23 24 26 33 10z m1063 -36 c2 -13 -1 -23 -7 -23 -7
0 -7 -8 -1 -26 12 -30 7 -41 -42 -95 -20 -21 -58 -26 -58 -6 1 21 28 48 45 45
26 -5 43 27 27 52 -6 11 -12 34 -12 51 0 26 3 30 23 27 14 -2 23 -11 25 -25z
m-746 -20 c10 -9 18 -23 18 -31 0 -8 6 -12 14 -9 19 7 30 -22 15 -39 -19 -23
-54 -16 -82 16 -16 18 -33 27 -42 24 -11 -5 -15 1 -15 20 0 31 20 35 27 6 3
-11 9 -20 14 -20 12 0 11 17 -1 25 -17 11 -11 25 12 25 12 0 30 -7 40 -17z
m642 1 c3 -9 6 -29 6 -46 0 -23 -4 -29 -17 -26 -14 3 -18 13 -18 46 0 42 17
58 29 26z m426 -14 c0 -11 -1 -20 -3 -20 -1 0 -10 9 -20 20 -16 19 -16 20 3
20 13 0 20 -7 20 -20z m-640 -19 c0 -11 -4 -23 -10 -26 -15 -9 -12 -25 4 -25
26 0 27 -18 4 -40 -21 -20 -22 -22 -5 -31 27 -16 20 -29 -16 -29 -40 0 -51 8
-36 27 9 10 6 12 -20 7 -26 -6 -31 -3 -31 13 0 10 5 24 12 31 9 9 4 12 -25 12
-41 0 -51 22 -18 40 17 8 26 4 57 -27 36 -37 37 -38 30 -10 -5 21 -3 27 9 27
9 0 15 6 14 13 -3 26 2 37 16 37 8 0 15 -9 15 -19z m54 -42 c-14 -16 -14 -18
2 -27 22 -12 11 -42 -15 -42 -17 0 -20 5 -15 30 4 17 1 36 -5 44 -9 11 -8 18
5 31 17 16 18 16 31 -1 11 -15 10 -20 -3 -35z m220 16 c-10 -25 -34 -17 -34
10 0 22 3 24 20 15 11 -6 17 -16 14 -25z m-162 3 c2 -16 9 -22 21 -20 24 4 22
-19 -3 -25 -11 -3 -20 -10 -20 -15 0 -6 -7 -5 -15 2 -13 11 -16 51 -6 78 4 11
20 -3 23 -20z m391 15 c4 -4 -7 -13 -24 -20 -28 -12 -31 -16 -25 -47 7 -35
-13 -64 -34 -51 -14 9 -2 67 16 78 8 4 14 14 14 22 0 11 11 18 41 24 3 0 9 -2
12 -6z m-803 -23 c0 -5 -4 -10 -10 -10 -5 0 -10 5 -10 10 0 6 5 10 10 10 6 0
10 -4 10 -10z m124 -6 c9 -23 8 -23 -18 -11 -16 8 -21 14 -13 19 18 11 24 10
31 -8z m-42 -15 c25 -18 28 -26 23 -50 -8 -36 8 -59 42 -59 18 0 24 -5 21 -17
-5 -23 -58 -21 -75 3 -8 10 -20 15 -33 11 -26 -7 -37 15 -22 48 8 18 8 25 -2
28 -19 7 -17 57 1 57 8 0 28 -9 45 -21z m1148 11 c0 -5 -4 -10 -10 -10 -5 0
-10 5 -10 10 0 6 5 10 10 10 6 0 10 -4 10 -10z m-1261 -34 c9 -11 8 -18 -6
-32 -12 -12 -14 -19 -6 -21 8 -3 10 -20 6 -54 -6 -48 -5 -49 21 -49 30 0 32 5
11 27 -16 16 -12 33 8 33 18 -1 47 -64 36 -81 -14 -23 -10 -35 15 -47 20 -9
27 -7 42 10 18 19 18 20 -4 39 -28 22 -21 39 18 39 34 0 49 -29 25 -46 -13
-10 -14 -17 -5 -33 14 -27 33 -27 25 0 -6 17 -3 20 12 17 10 -2 19 -10 19 -18
1 -8 2 -21 3 -28 1 -8 8 -11 20 -7 20 6 47 -18 37 -34 -4 -5 -2 -12 4 -16 10
-6 14 13 11 45 -2 13 0 13 8 1 5 -8 18 -12 31 -8 21 5 22 3 16 -34 -5 -29 -3
-40 6 -38 38 5 53 -22 26 -49 -9 -9 -7 -13 5 -18 25 -9 21 -31 -10 -51 -16
-10 -34 -23 -41 -30 -17 -17 -27 -16 -42 2 -10 12 -9 16 4 21 9 3 16 10 16 14
0 9 -51 0 -67 -12 -7 -6 -19 -8 -27 -5 -8 3 -29 2 -45 -3 -38 -11 -54 9 -37
46 11 24 19 25 59 9 15 -6 16 -4 8 18 -10 26 -3 39 28 49 10 3 5 14 -19 41
-24 28 -40 37 -64 37 l-31 0 25 -15 c14 -8 33 -18 43 -21 19 -7 23 -49 5 -60
-6 -4 -16 0 -23 9 -15 20 -25 22 -25 4 0 -30 -21 -35 -47 -9 -20 20 -24 31
-18 58 5 28 3 34 -11 34 -11 0 -15 -6 -11 -19 4 -17 2 -19 -21 -10 -18 7 -27
6 -33 -2 -11 -19 -31 1 -26 27 3 17 -1 25 -15 30 -11 3 -24 19 -30 35 -12 34
-28 38 -35 9 -4 -16 -8 -18 -19 -9 -10 8 -14 8 -14 0 0 -20 -47 -12 -53 9 -5
20 -27 28 -27 10 0 -5 -9 -10 -20 -10 -13 0 -20 7 -20 19 0 11 -6 22 -12 24
-10 4 -10 8 1 15 11 8 22 5 39 -9 18 -14 29 -16 42 -9 10 6 26 7 34 4 24 -9
47 3 40 21 -4 9 -13 14 -22 10 -8 -3 -21 0 -28 6 -10 8 -14 8 -14 0 0 -6 -11
-11 -25 -11 -15 0 -25 6 -25 14 0 17 51 56 73 56 9 0 19 5 22 10 3 6 15 10 26
10 16 0 19 -4 14 -21 -5 -16 -3 -20 6 -17 8 3 14 15 14 27 0 12 12 31 25 42
30 22 34 23 49 5z m206 -37 c5 -22 12 -29 31 -29 17 0 24 -6 24 -19 0 -11 -6
-21 -12 -24 -21 -7 -38 4 -38 25 0 17 -5 20 -29 15 -24 -5 -31 -2 -36 13 -8
26 14 58 36 53 10 -3 21 -18 24 -34z m1120 31 c17 0 20 -7 21 -45 1 -34 -3
-46 -17 -50 -9 -3 -20 -12 -23 -20 -8 -23 -26 -18 -27 8 -1 16 -2 18 -6 5 -2
-10 -9 -18 -14 -18 -13 0 -11 27 4 42 15 15 16 56 3 77 -7 11 -4 13 15 8 13
-4 33 -7 44 -7z m47 -22 c-7 -7 -12 -8 -12 -2 0 6 3 14 7 17 3 4 9 5 12 2 2
-3 -1 -11 -7 -17z m-1776 -25 c4 -24 -11 -40 -21 -23 -5 8 -11 8 -20 0 -20
-17 -33 -5 -27 25 4 22 9 26 35 23 22 -2 31 -9 33 -25z m-96 -18 c0 -17 -17
-28 -30 -20 -6 4 -5 13 2 25 13 20 28 18 28 -5z m932 0 c6 -30 -17 -55 -25
-28 -2 10 -8 26 -12 36 -5 13 -2 17 13 17 13 0 21 -8 24 -25z m-52 -26 c0 -12
-7 -19 -20 -19 -23 0 -24 4 -9 31 12 23 29 16 29 -12z m-850 -4 c8 -9 22 -12
41 -8 26 5 29 3 29 -21 0 -23 3 -26 25 -20 32 8 47 -22 21 -42 -17 -12 -16
-13 3 -24 13 -6 21 -21 21 -36 0 -14 -4 -22 -10 -19 -17 10 -11 -7 6 -20 15
-10 15 -13 -1 -29 -21 -20 -12 -34 10 -16 8 7 15 24 15 39 0 31 16 51 41 51
27 0 32 -18 13 -38 -17 -16 -16 -17 9 -26 29 -10 36 -26 13 -26 -8 0 -17 -7
-20 -16 -5 -14 -9 -14 -23 -3 -15 12 -16 12 -10 -3 3 -9 -1 -22 -8 -28 -12
-10 -16 -9 -21 4 -8 20 -24 21 -24 1 0 -11 -7 -14 -25 -9 -14 3 -32 1 -40 -6
-8 -6 -19 -9 -25 -5 -13 8 -13 35 0 35 6 0 10 5 10 10 0 6 -11 8 -25 4 -22 -5
-25 -3 -25 19 0 23 -4 26 -32 24 -33 -2 -33 -2 -34 46 -1 26 1 47 5 47 11 0
33 -17 31 -24 -7 -23 11 -46 34 -46 28 0 33 -9 15 -27 -9 -9 -2 -9 25 -3 52
12 68 27 55 52 -8 15 -13 17 -19 9 -5 -9 -9 -9 -13 3 -8 21 -34 20 -45 -1 -6
-10 -16 -14 -26 -10 -16 6 -16 8 0 32 16 25 16 25 -15 25 -24 0 -31 4 -31 20
0 30 25 35 59 11 30 -21 77 -29 66 -11 -3 6 -12 10 -20 10 -28 0 -84 45 -85
68 0 25 12 29 30 7z m113 -28 c-7 -11 -20 0 -26 24 -6 21 -5 21 12 3 10 -11
16 -22 14 -27z m691 11 c8 -33 7 -39 -6 -37 -7 1 -21 -1 -31 -6 -10 -4 -23 -3
-29 3 -14 14 -1 50 20 55 33 9 40 7 46 -15z m83 -38 c7 -17 7 -32 2 -36 -5 -3
-9 -16 -9 -30 0 -19 -5 -25 -17 -22 -20 4 -40 75 -30 102 11 27 42 18 54 -14z
m-159 -15 c12 -25 16 -65 8 -65 -2 0 -18 14 -36 30 -27 25 -30 33 -20 45 18
22 35 18 48 -10z m-542 -19 c8 -35 -4 -52 -22 -29 -7 10 -14 26 -14 36 0 26
29 20 36 -7z m400 3 c8 -14 -11 -33 -25 -25 -11 7 -4 36 9 36 5 0 12 -5 16
-11z m-286 -72 c23 -47 23 -47 10 -47 -5 0 -10 7 -10 15 0 8 -4 15 -10 15 -21
0 -25 2 -42 17 -10 9 -18 22 -18 29 0 13 28 24 43 17 4 -3 16 -23 27 -46z m93
-7 c-3 -11 -11 -20 -18 -20 -17 0 -26 35 -12 49 15 15 36 -5 30 -29z m-53 20
c0 -5 -2 -10 -4 -10 -3 0 -8 5 -11 10 -3 6 -1 10 4 10 6 0 11 -4 11 -10z
m1124 -73 c3 3 8 -1 12 -10 5 -13 10 -14 26 -6 27 15 47 -3 28 -26 -14 -17 0
-21 16 -5 8 8 15 6 24 -5 10 -12 10 -21 1 -43 -9 -22 -9 -35 0 -55 15 -34 8
-42 -23 -26 -14 7 -18 14 -10 17 6 2 12 8 12 14 0 6 -8 4 -18 -5 -26 -24 -32
-21 -32 13 0 22 4 28 15 24 9 -4 15 0 15 9 0 21 -26 15 -50 -11 -12 -12 -25
-22 -30 -22 -6 0 -10 -5 -10 -11 0 -8 5 -8 15 1 12 10 16 9 21 -5 4 -10 1 -21
-7 -26 -25 -15 -38 -10 -45 19 -3 15 -7 32 -9 39 -2 6 1 14 8 17 9 3 9 7 -1
14 -10 7 -10 14 3 38 17 33 20 64 5 64 -5 0 -10 6 -10 13 1 6 9 2 19 -10 10
-12 21 -19 25 -16z m-1059 -3 c13 -8 32 -14 42 -12 22 3 66 -26 55 -37 -4 -4
1 -5 10 -2 21 7 42 -17 34 -39 -7 -19 -61 -11 -89 14 -21 19 -35 9 -17 -13 10
-12 10 -18 0 -30 -19 -22 -39 -18 -46 10 -7 28 -41 43 -58 25 -8 -10 -8 -11 1
-6 20 11 26 -14 9 -33 -16 -17 -15 -18 10 -18 19 0 37 -12 60 -39 36 -43 38
-57 7 -62 -11 -2 -26 -15 -32 -29 l-12 -26 -23 22 c-47 44 -41 -14 6 -65 13
-15 19 -37 20 -73 0 -28 4 -54 9 -57 17 -10 9 -45 -16 -70 -28 -28 -32 -69
-10 -98 11 -15 12 -23 3 -33 -8 -10 -7 -18 5 -31 8 -9 20 -34 25 -54 9 -34 8
-38 -15 -54 -19 -12 -27 -13 -33 -5 -4 7 -22 20 -40 29 -28 14 -35 24 -37 52
-2 19 -6 46 -10 60 -6 24 -6 23 -14 -10 -5 -19 -6 -52 -3 -74 4 -25 3 -36 -4
-32 -10 6 -15 37 -25 154 -5 46 9 58 19 17 3 -14 10 -25 14 -25 10 0 20 52 12
65 -12 19 -10 36 4 42 10 3 14 22 14 60 0 39 4 53 13 50 13 -4 17 -156 4 -214
-6 -28 -4 -33 13 -33 17 0 19 7 18 53 0 28 2 68 5 87 3 19 1 42 -3 51 -5 8 -5
21 0 28 6 10 12 6 24 -15 12 -24 15 -25 15 -9 0 11 -6 28 -14 38 -7 11 -17 37
-21 60 -3 23 -13 46 -21 52 -9 7 -13 23 -11 40 2 23 11 34 40 47 44 21 52 32
39 55 -9 17 -10 17 -16 1 -8 -21 -25 -24 -25 -5 0 14 -40 37 -65 37 -8 0 -15
-9 -15 -20 0 -17 5 -19 25 -14 27 7 30 -1 19 -43 -9 -31 -64 -33 -64 -3 0 22
-10 26 -27 9 -6 -6 -16 -8 -22 -5 -15 10 -14 53 2 59 8 3 6 9 -7 19 -15 12
-17 18 -7 36 10 19 19 22 67 19 46 -2 52 0 37 10 -9 7 -23 13 -30 13 -19 0
-16 13 6 32 25 21 55 27 56 11 0 -24 20 -18 24 7 5 41 28 49 66 24z m1328 -16
c7 -46 -9 -71 -39 -65 -24 4 -34 -15 -14 -28 6 -3 10 -14 10 -25 0 -13 5 -17
20 -13 11 3 20 3 20 0 0 -16 -14 -37 -24 -37 -6 0 -12 -12 -11 -27 0 -22 -5
-28 -22 -29 -13 -1 -30 4 -39 11 -16 11 -15 14 4 33 28 28 28 52 2 52 -19 0
-20 2 -6 29 9 16 13 31 10 34 -3 3 8 13 25 22 21 10 31 23 31 39 0 46 26 49
33 4z m-1713 -65 c0 -15 40 -54 50 -48 4 3 6 14 3 25 -4 15 0 20 16 20 22 0
30 -33 10 -45 -7 -5 -4 -14 7 -26 16 -18 16 -20 1 -37 -21 -23 -22 -39 -2 -22
22 19 48 5 40 -21 -6 -18 -4 -21 9 -16 25 10 49 -3 36 -18 -15 -18 -98 -11
-118 9 -12 11 -12 20 -3 46 14 42 7 51 -31 43 -29 -6 -31 -5 -26 20 5 23 2 27
-19 27 -21 0 -23 3 -18 23 6 18 5 20 -6 10 -25 -24 -37 -15 -36 27 3 57 23 66
58 25 16 -18 29 -37 29 -42z m1660 58 c0 -15 -28 -33 -40 -26 -8 5 -8 11 1 21
13 15 39 19 39 5z m141 -28 c1 -10 1 -21 0 -25 0 -5 3 -8 9 -8 5 0 7 -7 4 -15
-7 -16 -39 -21 -48 -6 -3 4 -17 6 -31 3 -27 -5 -32 6 -12 30 28 36 76 49 78
21z m-191 -35 c0 -14 -30 -48 -42 -48 -12 0 -10 34 4 48 15 15 38 16 38 0z
m-1134 -32 c16 -13 17 -18 6 -36 -9 -16 -10 -25 -2 -35 13 -16 2 -45 -15 -39
-13 5 -38 57 -38 79 0 15 14 45 22 45 4 0 16 -6 27 -14z m92 -15 c8 -23 24
-31 48 -25 31 8 38 -12 12 -30 -35 -25 -58 -20 -70 15 -6 18 -16 28 -23 25
-19 -7 -38 17 -24 31 14 14 49 4 57 -16z m1189 -37 c-3 -3 -12 -4 -20 -2 -11
2 -12 9 -5 28 l10 25 11 -23 c5 -12 8 -25 4 -28z m57 40 c24 -9 19 -34 -6 -35
l-23 0 23 -11 c23 -12 31 -48 9 -48 -7 0 -22 7 -34 15 -22 15 -22 45 0 73 11
14 10 14 31 6z m-1884 -46 c0 -10 -4 -18 -10 -18 -5 0 -10 15 -10 33 0 24 3
28 10 17 5 -8 10 -23 10 -32z m1673 16 c7 -8 -11 -45 -27 -57 -8 -6 -8 -10 1
-13 6 -3 25 -18 42 -35 17 -16 36 -29 42 -29 7 0 9 -10 5 -25 -6 -22 -3 -25
19 -25 29 0 34 -24 9 -38 -19 -10 -11 -32 12 -32 8 0 14 -10 14 -24 0 -31 -14
-40 -30 -21 -11 14 -14 13 -24 -6 -6 -12 -15 -22 -21 -23 -16 -2 -17 32 -1 64
13 28 13 30 -4 30 -10 0 -22 5 -25 10 -3 6 -1 10 4 10 6 0 11 5 11 10 0 6 -9
10 -19 10 -29 0 -35 19 -14 42 18 21 18 21 -3 10 -18 -9 -22 -21 -22 -61 0
-55 -6 -71 -28 -71 -11 0 -14 12 -13 50 1 28 5 50 10 50 4 0 10 11 13 25 4 14
13 25 21 25 8 0 15 5 15 10 0 6 -7 10 -15 10 -22 0 -39 36 -20 44 8 3 15 16
15 29 0 32 16 47 33 31z m-710 -34 c4 -17 0 -20 -24 -20 -33 0 -40 23 -12 39
21 11 29 7 36 -19z m627 -20 c0 -23 -26 -34 -34 -13 -7 18 12 46 25 37 5 -3 9
-13 9 -24z m-1520 10 c0 -5 -7 -10 -15 -10 -8 0 -18 0 -22 -1 -4 0 -9 4 -11
10 -2 6 8 11 22 11 14 0 26 -4 26 -10z m1102 -24 c5 -26 -7 -56 -22 -56 -11 0
-13 40 -4 64 9 23 21 20 26 -8z m-398 -1 c3 -8 1 -15 -4 -15 -6 0 -10 7 -10
15 0 8 2 15 4 15 2 0 6 -7 10 -15z m27 -48 c-16 -16 -22 -4 -14 34 l6 34 10
-29 c6 -19 6 -31 -2 -39z m259 43 c6 -12 9 -28 6 -38 -2 -9 -7 -29 -10 -44 -3
-15 -24 -48 -46 -73 -35 -41 -40 -51 -37 -88 4 -43 11 -68 28 -100 6 -11 6
-24 1 -34 -12 -21 -4 -49 25 -91 28 -42 52 -61 76 -62 9 0 17 -4 17 -9 0 -13
-28 -22 -35 -10 -4 5 -11 7 -16 3 -6 -4 -6 -11 2 -20 6 -7 9 -20 6 -29 -11
-28 15 -27 63 3 29 18 50 26 52 20 3 -8 14 -8 38 0 28 10 37 9 59 -5 14 -10
35 -16 46 -14 26 4 45 21 23 21 -9 0 -27 15 -42 34 -21 28 -27 49 -31 114 -3
44 -10 95 -16 113 -10 36 -4 45 47 75 15 9 16 14 8 25 -12 15 -3 52 15 63 6 4
6 18 0 39 -5 17 -9 33 -9 34 0 2 13 3 28 3 24 0 28 4 27 27 0 14 6 28 13 30 6
3 12 -3 12 -12 0 -9 9 -19 20 -22 25 -7 26 -23 3 -23 -17 -1 -17 -1 0 -11 11
-6 16 -17 12 -28 -4 -13 0 -17 17 -17 19 1 24 -5 26 -31 4 -39 -9 -42 -36 -8
-11 14 -23 25 -27 25 -4 0 -2 -7 5 -15 10 -12 10 -18 1 -29 -10 -11 -10 -20
-1 -36 10 -19 9 -21 -7 -18 -10 2 -18 8 -18 13 0 18 -16 35 -31 35 -13 0 -14
-8 -9 -39 8 -47 -12 -156 -31 -172 -16 -13 -18 -35 -4 -44 16 -10 60 6 60 22
0 9 -6 13 -15 10 -11 -5 -12 -1 -5 19 6 14 10 40 10 57 0 18 3 42 6 55 6 22 8
22 25 6 11 -10 16 -21 11 -28 -5 -6 -9 -39 -10 -73 0 -56 2 -63 19 -63 22 0
23 4 10 29 -6 11 -6 47 1 97 8 64 16 85 39 112 16 18 29 37 29 42 0 6 4 9 9 8
5 -2 16 6 24 17 13 16 17 17 31 6 19 -16 22 -77 4 -83 -7 -3 -18 -33 -25 -69
-17 -84 -18 -87 -26 -95 -4 -4 -7 -17 -7 -30 0 -15 -9 -25 -27 -32 -27 -10
-27 -10 -5 -11 23 -1 24 -3 16 -53 -4 -29 -7 -60 -6 -68 0 -9 -12 -25 -28 -35
-16 -11 -26 -23 -24 -27 8 -13 50 -9 62 5 15 18 128 15 117 -3 -3 -5 -1 -10 5
-10 15 0 1 50 -22 75 -14 15 -18 32 -16 70 3 41 7 52 28 62 28 14 37 42 39
125 1 61 11 77 32 52 8 -10 21 -13 37 -9 23 6 24 4 19 -24 -5 -24 -2 -34 14
-45 l21 -14 -23 -4 c-13 -2 -23 -11 -25 -22 -7 -49 -17 -72 -36 -87 -18 -14
-18 -17 -4 -22 11 -4 23 4 38 23 25 34 58 40 58 11 0 -21 27 -48 37 -37 4 4 1
16 -6 27 -8 14 -10 34 -5 63 10 55 11 58 12 77 2 21 42 33 42 14 0 -8 -5 -24
-11 -37 -6 -15 -7 -32 -1 -47 7 -21 10 -16 21 36 8 34 11 65 8 70 -3 5 -2 15
4 23 5 10 9 -18 9 -78 0 -60 -4 -91 -10 -87 -5 3 -10 1 -10 -4 0 -6 5 -11 10
-11 6 0 10 -11 10 -25 0 -19 -5 -25 -22 -25 -18 0 -20 -2 -8 -9 8 -6 18 -8 22
-5 4 3 8 -72 7 -166 l0 -170 -477 0 c-473 0 -612 5 -612 21 0 5 7 9 17 9 24 0
7 13 -22 16 -14 1 -25 -2 -25 -7 0 -5 -23 -9 -52 -9 -28 0 -48 -3 -44 -7 4 -4
26 -6 50 -4 24 1 47 -2 51 -8 9 -15 -269 -15 -298 0 -16 9 -22 9 -25 0 -3 -8
-71 -11 -238 -11 l-234 0 0 114 c0 107 2 116 23 133 12 10 22 24 23 31 3 33 5
35 17 13 6 -13 29 -35 49 -48 34 -21 38 -22 38 -5 0 9 -13 29 -30 43 -18 17
-33 44 -41 73 -11 45 -23 58 -32 34 -8 -24 -20 1 -25 52 -4 41 -2 50 12 50 10
0 15 -7 13 -19 -1 -11 2 -21 8 -23 5 -2 13 21 17 50 15 105 68 157 68 67 0
-25 5 -45 10 -45 6 0 10 -4 10 -10 0 -5 -7 -10 -15 -10 -11 0 -15 -12 -15 -47
l0 -48 20 33 c15 24 21 54 23 105 2 83 22 92 22 10 0 -41 5 -56 23 -73 17 -16
22 -33 24 -73 0 -29 2 -65 3 -80 1 -18 -7 -40 -21 -57 -13 -15 -24 -31 -24
-34 0 -13 74 -5 90 9 14 13 26 14 61 6 24 -6 61 -11 82 -11 20 0 37 -5 37 -11
0 -10 -32 -43 -75 -78 -17 -14 -17 -15 1 -28 10 -7 25 -13 33 -13 14 1 13 3
-2 14 -16 12 -13 15 29 25 28 7 50 8 53 3 3 -5 16 -12 29 -16 16 -6 22 -3 22
8 0 9 -6 16 -12 16 -12 1 30 29 43 30 3 0 18 -11 33 -25 26 -24 60 -33 70 -17
9 16 -31 55 -57 55 -15 0 -24 3 -22 7 3 4 -2 20 -10 36 -16 32 -11 46 15 42
11 -2 34 15 60 45 23 26 45 47 50 47 14 0 4 -32 -14 -45 -16 -13 -16 -14 0
-23 13 -7 18 -20 16 -41 -2 -27 1 -31 23 -31 15 0 25 6 25 14 0 7 7 19 15 26
12 10 16 8 25 -14 5 -14 13 -26 17 -26 5 0 34 12 65 27 80 39 78 54 -16 92
-26 11 -32 9 -59 -16 -22 -20 -28 -23 -24 -10 6 16 3 18 -24 12 -29 -7 -30 -6
-19 14 6 12 8 25 6 30 -3 5 1 11 9 15 25 9 18 28 -7 20 l-23 -6 24 26 c34 37
44 33 36 -15 -10 -56 17 -49 28 7 10 53 10 53 2 102 -5 29 -4 42 4 42 6 0 11
-9 11 -20 0 -11 7 -20 15 -20 17 0 20 16 4 25 -6 4 -8 14 -5 22 4 10 2 13 -8
10 -11 -5 -16 7 -21 48 -8 59 -1 95 10 58 5 -15 15 -23 30 -23 18 0 21 4 17
25 -3 16 0 25 9 25 7 0 9 3 6 7 -8 7 11 33 24 33 5 0 9 -6 9 -14 0 -8 5 -18
10 -21 7 -4 9 2 4 19 -7 29 10 36 24 9 17 -29 41 -8 40 36 0 21 3 44 6 50 11
18 34 13 46 -9z m65 10 c3 -5 1 -10 -4 -10 -6 0 -11 5 -11 10 0 6 2 10 4 10 3
0 8 -4 11 -10z m-460 -38 c-6 -7 -35 18 -35 31 0 5 9 2 20 -8 11 -10 18 -20
15 -23z m-577 3 c1 -11 -4 -29 -11 -39 -14 -19 -16 -19 -51 -2 -37 17 -55 41
-42 54 4 3 16 0 28 -7 18 -11 22 -11 30 4 13 21 42 15 46 -10z m768 7 c25 -20
35 -54 23 -73 -6 -10 -10 -5 -15 19 -4 18 -15 37 -25 43 -19 10 -26 29 -11 29
4 0 17 -8 28 -18z m946 5 c7 -8 20 -12 30 -9 10 2 26 1 35 -3 16 -6 16 -8 -6
-26 l-23 -19 25 0 c24 0 25 -2 16 -30 -6 -16 -15 -30 -21 -30 -6 0 -7 7 -4 16
5 12 1 14 -16 9 -18 -6 -20 -4 -15 14 3 11 2 21 -3 21 -4 0 -10 -9 -13 -21 -3
-12 -10 -18 -15 -15 -6 3 -8 15 -5 26 4 13 0 20 -10 20 -18 0 -29 24 -21 45 8
19 29 19 46 2z m-1284 -14 c-4 -22 -38 -30 -38 -10 0 14 13 24 33 26 5 1 7 -7
5 -16z m1091 3 c9 -11 7 -20 -14 -40 -14 -14 -34 -26 -44 -26 -11 0 -21 -9
-24 -21 -9 -34 -25 -13 -20 26 3 21 0 35 -6 35 -6 0 -11 4 -11 8 0 5 24 13 53
19 28 5 53 11 53 11 1 1 7 -4 13 -12z m-1315 -22 c18 -7 21 -30 6 -39 -15 -9
-40 14 -33 31 6 16 6 16 27 8z m261 -4 c3 -5 -1 -10 -10 -10 -9 0 -13 5 -10
10 3 6 8 10 10 10 2 0 7 -4 10 -10z m-385 -26 c0 -8 -9 -14 -20 -14 -22 0 -28
26 -7 33 16 6 27 -1 27 -19z m661 -7 c-13 -13 -26 -3 -16 12 3 6 11 8 17 5 6
-4 6 -10 -1 -17z m-607 4 c3 -4 -1 -17 -9 -27 -10 -15 -16 -16 -26 -7 -6 6 -9
19 -6 27 7 17 32 22 41 7z m314 1 c14 -9 2 -54 -17 -67 -15 -9 -41 19 -41 44
0 16 9 24 40 30 3 0 11 -3 18 -7z m-508 -24 c0 -6 -8 -20 -17 -31 -13 -15 -15
-21 -5 -24 16 -6 15 -38 -2 -52 -20 -17 -27 0 -25 59 2 34 8 54 18 60 18 9 31
4 31 -12z m630 -24 c0 -26 -1 -27 -24 -18 -16 6 -22 45 -9 57 11 12 33 -14 33
-39z m-576 13 c-3 -34 -4 -37 -19 -37 -17 0 -18 4 -9 38 7 26 30 25 28 -1z
m1196 19 c0 -3 -4 -8 -10 -11 -5 -3 -10 -1 -10 4 0 6 5 11 10 11 6 0 10 -2 10
-4z m-582 -31 c-3 -3 -9 2 -12 12 -6 14 -5 15 5 6 7 -7 10 -15 7 -18z m472
-26 c0 -37 -1 -39 -21 -29 -21 12 -23 45 -4 66 16 19 25 6 25 -37z m-447 11
c-3 -11 -9 -17 -15 -14 -5 3 -4 12 3 20 16 19 18 18 12 -6z m-534 -9 c24 -18
22 -41 -3 -41 -11 0 -36 39 -36 55 0 10 16 4 39 -14z m408 -35 c-4 -38 -2 -58
7 -65 13 -11 10 -67 -4 -86 -14 -18 -22 -75 -11 -75 18 0 31 36 31 84 0 34 4
46 15 46 17 0 13 59 -5 70 -11 7 -4 40 9 40 3 -1 19 -17 34 -38 23 -30 27 -44
23 -72 -10 -57 -12 -64 -23 -85 -6 -11 -14 -40 -18 -64 -8 -48 -50 -101 -80
-101 -11 0 -15 -5 -11 -15 3 -9 2 -23 -3 -33 -5 -9 -12 -25 -15 -34 -9 -31
-36 -21 -36 12 0 17 -4 30 -8 30 -5 0 -13 20 -19 45 -6 25 -8 45 -6 45 3 0 15
-8 28 -18 16 -13 20 -23 14 -34 -5 -9 -3 -22 6 -34 14 -18 14 -18 15 6 1 14 3
38 5 54 5 35 -4 54 -16 35 -10 -17 -57 -2 -73 23 -8 13 -6 24 10 45 27 36 48
36 52 1 2 -16 7 -28 12 -28 20 0 18 20 -5 54 -25 37 -34 73 -15 61 6 -3 10 3
10 14 0 11 5 23 10 26 6 3 10 15 10 27 0 11 8 32 19 46 10 15 22 37 25 50 13
39 19 24 13 -32z m-467 29 c16 -19 5 -49 -15 -41 -9 3 -19 -3 -26 -15 -13 -25
-52 -22 -57 5 -3 14 0 17 13 12 26 -10 58 3 51 21 -12 30 13 44 34 18z m950
-12 c0 -25 1 -25 19 -9 17 15 19 15 25 1 3 -8 3 -36 -1 -62 -4 -34 -3 -44 5
-39 7 4 12 20 12 36 0 16 3 31 8 33 10 7 3 -232 -9 -270 -13 -41 -28 -41 -69
-3 -31 29 -32 33 -27 88 5 47 2 65 -14 90 -23 39 -24 61 -4 109 24 56 55 71
55 26z m-787 -30 c4 -19 2 -33 -3 -33 -6 0 -10 1 -10 3 -10 64 -10 81 -2 72 5
-5 12 -25 15 -42z m1009 11 c-2 -20 -8 -32 -12 -27 -10 9 -1 63 9 63 4 0 5
-16 3 -36z m512 27 c3 -4 3 -11 0 -14 -8 -8 -34 3 -34 14 0 11 27 12 34 0z
m-1484 -8 c0 -5 -4 -14 -9 -21 -6 -10 -10 -9 -14 7 -3 14 0 21 9 21 8 0 14 -3
14 -7z m907 -25 c2 -12 -1 -35 -6 -50 -7 -20 -6 -37 5 -63 9 -22 12 -51 9 -80
-3 -25 -3 -50 1 -56 3 -6 8 -31 10 -55 3 -41 2 -44 -21 -44 -31 0 -34 13 -40
155 -3 65 -9 123 -14 128 -13 13 -1 46 20 58 11 5 19 17 19 26 0 22 13 8 17
-19z m628 22 c-3 -5 -10 -10 -16 -10 -5 0 -9 5 -9 10 0 6 7 10 16 10 8 0 12
-4 9 -10z m35 -27 c0 -25 -1 -26 -16 -11 -9 9 -13 21 -10 27 13 20 26 11 26
-16z m-1664 -42 c-3 -20 -6 -51 -6 -68 1 -24 -4 -33 -16 -33 -15 0 -16 8 -11
58 4 32 9 66 13 75 11 30 26 6 20 -32z m1624 18 c0 -20 -24 -26 -35 -9 -4 6
-4 17 -1 25 7 20 36 7 36 -16z m-1330 7 c0 -7 -7 -19 -16 -27 -9 -7 -14 -22
-11 -35 5 -26 -20 -41 -37 -24 -8 8 -5 16 9 27 14 11 16 17 8 20 -7 3 -13 16
-13 29 0 20 5 24 30 24 19 0 30 -5 30 -14z m1115 -26 c-5 -8 -11 -8 -17 -2 -6
6 -7 16 -3 22 5 8 11 8 17 2 6 -6 7 -16 3 -22z m-36 -67 c-9 -49 -28 -111 -40
-128 -3 -5 -5 -45 -4 -87 2 -61 -1 -78 -11 -78 -16 0 -17 2 -15 94 0 38 5 74
11 80 5 5 10 23 10 38 0 16 9 46 20 68 11 22 20 46 20 55 0 9 4 14 9 11 5 -3
5 -26 0 -53z m203 16 c-3 -25 -18 -46 -27 -37 -3 2 -2 19 1 37 8 36 30 36 26
0z m-1808 -12 c-2 -49 -4 -57 -14 -57 -5 0 -10 21 -10 46 0 32 4 44 13 42 6
-3 12 -17 11 -31z m1616 -92 c0 -14 -4 -25 -10 -25 -11 0 -14 33 -3 43 11 11
13 8 13 -18z m160 5 c0 -5 -4 -10 -9 -10 -6 0 -13 5 -16 10 -3 6 1 10 9 10 9
0 16 -4 16 -10z m-1770 -110 c0 -10 -3 -26 -6 -35 -10 -25 -21 0 -16 35 5 32
22 32 22 0z m33 0 c3 -11 1 -18 -4 -14 -5 3 -9 12 -9 20 0 20 7 17 13 -6z
m807 -19 c0 -20 -17 -37 -27 -28 -7 8 7 47 18 47 5 0 9 -9 9 -19z m-922 -503
l3 -138 -136 0 -135 0 0 133 c0 74 3 137 7 141 4 3 63 5 132 4 l126 -3 3 -137z
m1502 115 c0 -28 -25 -63 -45 -63 -37 0 -20 -79 17 -81 18 -1 17 -3 -7 -8 -42
-9 -38 -32 10 -58 52 -28 69 -29 55 -4 -5 11 -10 38 -10 60 0 27 -5 43 -16 49
-12 7 -13 11 -5 17 26 16 41 -4 41 -54 0 -33 5 -51 14 -54 11 -5 15 9 18 65 3
65 1 71 -19 79 -23 9 -32 29 -12 29 5 0 9 10 7 23 l-3 22 213 3 212 2 0 -140
0 -140 -960 0 -960 0 0 133 c0 74 3 137 7 140 3 4 330 7 725 7 l718 0 0 -27z
m800 -113 l0 -140 -140 0 -140 0 0 133 c0 74 3 137 7 140 3 4 66 7 140 7 l133
0 0 -140z"/>
<path d="M530 3035 c-28 -30 -20 -56 25 -81 38 -20 50 -56 15 -47 -10 3 -25
11 -31 19 -16 20 -29 17 -29 -5 0 -34 64 -60 100 -41 38 20 20 93 -26 110 -14
6 -22 15 -19 21 5 7 15 5 31 -6 23 -15 24 -15 24 9 0 45 -56 57 -90 21z"/>
<path d="M1041 3043 c-28 -19 -26 -33 4 -33 24 0 25 -2 25 -65 0 -58 2 -65 20
-65 18 0 20 7 20 65 0 63 1 65 25 65 51 0 15 42 -40 45 -19 2 -43 -4 -54 -12z"/>
<path d="M1210 2969 c0 -83 1 -89 20 -89 20 0 21 5 18 87 -3 73 -6 87 -20 89
-16 2 -18 -8 -18 -87z"/>
<path d="M2029 3047 c-9 -7 -22 -37 -29 -67 -7 -30 -17 -63 -21 -72 -15 -28
12 -34 31 -7 16 20 21 22 44 11 14 -6 26 -16 26 -22 0 -5 9 -10 20 -10 24 0
25 9 5 57 -8 19 -15 43 -15 52 0 9 -10 28 -23 43 -18 23 -25 25 -38 15z m31
-87 c0 -5 -4 -10 -10 -10 -5 0 -10 5 -10 10 0 6 5 10 10 10 6 0 10 -4 10 -10z"/>
<path d="M2177 3053 c-2 -5 -2 -45 1 -90 l4 -83 49 0 c38 0 51 4 59 19 14 28
-4 36 -35 15 l-25 -16 0 69 c0 67 -10 93 -36 93 -7 0 -15 -3 -17 -7z"/>
<path d="M687 3044 c-4 -4 -7 -16 -7 -26 0 -13 7 -18 26 -18 26 0 26 -1 22
-60 -4 -57 -3 -60 19 -60 21 0 23 4 23 60 0 54 2 60 21 60 15 0 20 5 17 23 -3
19 -10 22 -58 25 -31 2 -59 0 -63 -4z"/>
<path d="M880 3029 c-15 -27 -40 -110 -40 -131 0 -25 36 -23 43 2 3 13 14 20
31 20 15 0 30 -8 36 -20 11 -21 40 -28 40 -9 0 19 -33 114 -48 137 -18 28 -48
29 -62 1z m50 -64 c0 -8 -7 -15 -15 -15 -8 0 -15 7 -15 15 0 8 7 15 15 15 8 0
15 -7 15 -15z"/>
<path d="M1330 3025 c-17 -31 0 -75 28 -75 11 0 27 -9 36 -19 25 -28 0 -39
-28 -12 -27 26 -46 27 -46 3 0 -28 20 -42 60 -42 36 0 70 23 70 48 0 6 -16 23
-35 38 -19 14 -35 33 -35 40 0 20 17 17 29 -3 9 -15 12 -16 20 -4 17 27 -6 51
-48 51 -30 0 -40 -5 -51 -25z"/>
<path d="M1508 3039 c-21 -12 -12 -39 13 -39 17 0 19 -8 19 -60 0 -57 1 -60
25 -60 24 0 25 3 25 60 0 52 2 60 19 60 27 0 34 27 11 40 -24 13 -90 12 -112
-1z"/>
<path d="M1690 2965 c0 -78 2 -85 20 -85 18 0 20 7 20 85 0 78 -2 85 -20 85
-18 0 -20 -7 -20 -85z"/>
<path d="M1801 3024 c-45 -58 -7 -144 63 -144 38 0 76 23 57 34 -6 4 -18 3
-25 -3 -10 -8 -22 -8 -40 -1 -25 9 -27 14 -24 57 l3 48 47 -2 c44 -1 47 0 38
18 -8 14 -22 19 -55 19 -35 0 -48 -5 -64 -26z"/>
<path d="M230 2688 c-1 -2 -2 -42 -3 -91 -2 -84 -1 -87 21 -87 21 0 22 3 22
90 0 83 -1 90 -20 90 -11 0 -20 -1 -20 -2z"/>
<path d="M180 2295 c0 -69 3 -85 15 -85 11 0 15 12 15 45 0 25 4 45 9 45 5 0
25 -18 44 -40 54 -63 67 -55 67 40 0 73 -2 80 -20 80 -17 0 -20 -7 -20 -40 0
-22 -4 -40 -9 -40 -5 0 -24 18 -41 40 -50 63 -60 55 -60 -45z"/>
<path d="M186 2062 c-2 -4 -4 -46 -3 -92 l2 -85 43 -3 c58 -4 102 26 102 71 0
53 -11 76 -45 97 -32 20 -89 27 -99 12z m82 -31 c9 -5 12 -25 10 -62 -3 -47
-6 -54 -25 -57 -22 -3 -23 0 -23 62 0 67 7 77 38 57z"/>
<path d="M228 1665 c-3 -82 -2 -85 20 -85 21 0 22 4 22 85 0 77 -2 85 -19 85
-18 0 -20 -9 -23 -85z"/>
<path d="M235 1418 c-40 -111 -46 -158 -20 -158 8 0 15 9 15 20 0 33 30 37 54
7 20 -25 46 -36 46 -19 0 9 -47 139 -55 152 -9 14 -35 12 -40 -2z"/>
<path d="M185 1098 c-3 -8 -5 -48 -3 -89 2 -61 6 -74 21 -77 14 -3 17 4 17 42
0 25 4 46 10 46 5 0 24 -20 42 -45 50 -67 58 -60 58 45 0 83 -1 90 -20 90 -17
0 -20 -7 -20 -47 l0 -47 -50 49 c-37 37 -51 45 -55 33z"/>
<path d="M2108 2319 c-10 -5 -18 -17 -18 -24 0 -18 12 -19 28 -3 10 10 17 10
32 0 25 -15 26 -1 2 21 -21 20 -21 20 -44 6z"/>
<path d="M2066 2262 c-3 -6 -1 -14 5 -17 15 -10 25 3 12 16 -7 7 -13 7 -17 1z"/>
<path d="M2530 2610 c0 -79 0 -80 25 -80 25 0 25 1 25 80 0 79 0 80 -25 80
-25 0 -25 -1 -25 -80z"/>
<path d="M2480 2415 c0 -60 3 -75 15 -75 10 0 15 11 15 35 0 19 3 35 6 35 4 0
24 -16 45 -35 22 -19 44 -35 49 -35 6 0 10 32 10 75 0 60 -3 75 -15 75 -10 0
-15 -11 -15 -35 0 -19 -3 -35 -7 -35 -5 0 -21 16 -36 35 -15 19 -37 35 -47 35
-18 0 -20 -7 -20 -75z"/>
<path d="M2511 2279 c-24 -26 -15 -49 29 -76 42 -24 37 -37 -10 -30 -37 5 -39
4 -29 -14 11 -22 77 -27 97 -7 30 30 4 80 -51 93 -21 6 -25 10 -17 21 9 10 17
10 36 2 27 -13 39 -6 31 17 -9 23 -63 19 -86 -6z"/>
<path d="M2508 2089 c-24 -13 -23 -29 2 -29 18 0 20 -7 20 -60 0 -57 1 -60 25
-60 24 0 25 3 25 60 0 53 2 60 20 60 23 0 26 10 8 28 -15 15 -76 15 -100 1z"/>
<path d="M2530 1827 c0 -76 2 -83 20 -83 18 0 20 7 20 83 0 76 -2 83 -20 83
-18 0 -20 -7 -20 -83z"/>
<path d="M2497 1704 c-12 -12 -8 -21 13 -27 17 -4 20 -14 20 -66 0 -54 2 -61
20 -61 18 0 20 7 20 61 0 53 3 62 20 66 37 10 15 28 -36 31 -27 2 -53 0 -57
-4z"/>
<path d="M2480 1458 c0 -43 5 -57 27 -80 33 -34 52 -35 87 -3 22 20 26 32 26
80 0 48 -2 55 -20 55 -17 0 -20 -7 -20 -49 0 -57 -7 -81 -25 -81 -25 0 -45 36
-45 83 0 35 -4 47 -15 47 -11 0 -15 -12 -15 -52z"/>
<path d="M2491 1286 c-10 -12 -8 -15 11 -18 21 -3 23 -9 26 -65 3 -54 6 -63
22 -63 16 0 19 9 22 63 3 56 5 62 26 65 43 6 5 32 -48 32 -29 0 -52 -6 -59
-14z"/>
<path d="M2500 1015 l0 -85 55 0 c42 0 55 3 55 15 0 10 -11 15 -35 15 -31 0
-35 3 -35 25 0 21 5 25 30 25 17 0 30 5 30 10 0 6 -13 10 -30 10 -23 0 -30 4
-30 20 0 16 7 20 35 20 24 0 35 5 35 15 0 12 -13 15 -55 15 l-55 0 0 -85z"/>
<path d="M1105 2560 c-4 -6 5 -10 20 -10 15 0 24 4 20 10 -3 6 -12 10 -20 10
-8 0 -17 -4 -20 -10z"/>
<path d="M1876 2186 c-16 -25 -16 -26 4 -26 12 0 19 4 16 9 -4 5 0 11 6 14 10
3 10 8 2 16 -8 9 -15 6 -28 -13z"/>
<path d="M1799 2144 c-11 -14 -10 -15 11 -12 13 1 25 9 28 16 5 17 -23 15 -39
-4z"/>
<path d="M1615 1810 c3 -5 11 -10 16 -10 6 0 7 5 4 10 -3 6 -11 10 -16 10 -6
0 -7 -4 -4 -10z"/>
<path d="M1512 1803 c-6 -2 -10 -9 -7 -13 7 -11 35 -2 35 11 0 10 -8 10 -28 2z"/>
<path d="M1560 1770 c0 -5 5 -10 11 -10 5 0 7 5 4 10 -3 6 -8 10 -11 10 -2 0
-4 -4 -4 -10z"/>
<path d="M608 2244 c-4 -3 3 -15 14 -26 22 -22 38 -16 22 9 -12 19 -27 26 -36
17z"/>
<path d="M925 2122 c4 -13 1 -29 -5 -37 -10 -12 -4 -22 30 -55 38 -36 60 -49
60 -35 0 3 -16 22 -36 42 -23 23 -34 42 -31 54 3 10 -2 26 -10 36 -13 17 -14
16 -8 -5z"/>
<path d="M1373 1525 c-6 -14 -7 -23 -2 -19 13 8 31 44 22 44 -4 0 -13 -11 -20
-25z"/>
<path d="M1350 1465 c-10 -12 -10 -15 4 -15 9 0 16 7 16 15 0 8 -2 15 -4 15
-2 0 -9 -7 -16 -15z"/>
<path d="M1363 1362 c4 -39 2 -63 -5 -70 -9 -9 -7 -15 8 -27 27 -20 31 -19 38
16 10 49 7 78 -9 109 -26 49 -39 37 -32 -28z"/>
<path d="M1396 1221 c-3 -5 1 -11 9 -15 8 -3 15 -1 15 4 0 13 -18 22 -24 11z"/>
<path d="M1830 1149 c0 -5 5 -7 10 -4 6 3 10 8 10 11 0 2 -4 4 -10 4 -5 0 -10
-5 -10 -11z"/>
<path d="M1917 1153 c-4 -3 -7 -11 -7 -17 0 -6 5 -5 12 2 6 6 9 14 7 17 -3 3
-9 2 -12 -2z"/>
<path d="M2285 1150 c3 -5 8 -10 11 -10 2 0 4 5 4 10 0 6 -5 10 -11 10 -5 0
-7 -4 -4 -10z"/>
<path d="M1435 1130 c3 -5 13 -10 21 -10 8 0 12 5 9 10 -3 6 -13 10 -21 10 -8
0 -12 -4 -9 -10z"/>
<path d="M2138 1133 c7 -3 16 -2 19 1 4 3 -2 6 -13 5 -11 0 -14 -3 -6 -6z"/>
<path d="M2165 1110 c3 -5 8 -10 11 -10 2 0 4 5 4 10 0 6 -5 10 -11 10 -5 0
-7 -4 -4 -10z"/>
<path d="M2240 1090 c13 -9 13 -11 0 -21 -13 -9 -12 -10 3 -5 10 3 21 6 24 6
3 0 0 7 -7 15 -7 8 -18 15 -24 15 -6 0 -4 -5 4 -10z"/>
<path d="M1445 1080 c3 -5 8 -10 11 -10 2 0 4 5 4 10 0 6 -5 10 -11 10 -5 0
-7 -4 -4 -10z"/>
<path d="M1870 1079 c0 -5 5 -7 10 -4 6 3 10 8 10 11 0 2 -4 4 -10 4 -5 0 -10
-5 -10 -11z"/>
<path d="M1230 1045 c-11 -13 -10 -14 4 -9 9 3 16 10 16 15 0 13 -6 11 -20 -6z"/>
<path d="M1400 1049 c0 -5 5 -7 10 -4 6 3 10 8 10 11 0 2 -4 4 -10 4 -5 0 -10
-5 -10 -11z"/>
<path d="M760 1040 c-24 -8 -23 -8 8 -9 20 -1 31 3 27 9 -3 6 -7 10 -8 9 -1
-1 -13 -5 -27 -9z"/>
<path d="M2156 1041 c-4 -7 -5 -15 -2 -18 9 -9 19 4 14 18 -4 11 -6 11 -12 0z"/>
<path d="M580 1030 c0 -5 9 -10 20 -10 11 0 20 5 20 10 0 6 -9 10 -20 10 -11
0 -20 -4 -20 -10z"/>
<path d="M2275 1010 c-15 -17 -16 -20 -3 -20 9 0 19 7 22 16 10 25 1 27 -19 4z"/>
<path d="M689 1005 c-8 -9 -25 -28 -38 -41 -23 -24 -19 -30 14 -18 17 7 50 62
42 71 -3 2 -11 -3 -18 -12z"/>
<path d="M1275 1009 c-12 -19 5 -23 22 -6 16 16 16 17 1 17 -9 0 -20 -5 -23
-11z"/>
<path d="M1678 1013 c7 -3 16 -2 19 1 4 3 -2 6 -13 5 -11 0 -14 -3 -6 -6z"/>
<path d="M1350 1000 c0 -5 5 -10 10 -10 6 0 10 5 10 10 0 6 -4 10 -10 10 -5 0
-10 -4 -10 -10z"/>
<path d="M1400 985 c0 -8 5 -15 10 -15 6 0 10 7 10 15 0 8 -4 15 -10 15 -5 0
-10 -7 -10 -15z"/>
<path d="M1995 990 c-3 -5 1 -10 9 -10 8 0 18 5 21 10 3 6 -1 10 -9 10 -8 0
-18 -4 -21 -10z"/>
<path d="M2095 980 c-3 -5 1 -10 9 -10 9 0 16 5 16 10 0 6 -4 10 -9 10 -6 0
-13 -4 -16 -10z"/>
<path d="M1716 972 c-3 -6 -1 -14 5 -17 15 -10 25 3 12 16 -7 7 -13 7 -17 1z"/>
<path d="M2058 973 c7 -3 16 -2 19 1 4 3 -2 6 -13 5 -11 0 -14 -3 -6 -6z"/>
<path d="M2260 971 c0 -5 5 -13 10 -16 6 -3 10 -2 10 4 0 5 -4 13 -10 16 -5 3
-10 2 -10 -4z"/>
<path d="M1415 930 c-3 -5 1 -10 10 -10 9 0 13 5 10 10 -3 6 -8 10 -10 10 -2
0 -7 -4 -10 -10z"/>
<path d="M1563 913 c-18 -14 -48 -29 -65 -34 -31 -8 -30 -8 9 -5 41 4 103 38
103 57 0 15 -13 10 -47 -18z"/>
<path d="M1810 931 c0 -10 30 -24 37 -17 3 2 -5 9 -16 16 -12 6 -21 7 -21 1z"/>
<path d="M466 921 c-8 -12 28 -51 46 -51 6 0 1 12 -13 28 -13 15 -25 28 -25
30 -1 2 -5 -1 -8 -7z"/>
<path d="M570 920 c0 -5 4 -10 9 -10 6 0 13 5 16 10 3 6 -1 10 -9 10 -9 0 -16
-4 -16 -10z"/>
<path d="M930 920 c0 -5 6 -10 14 -10 8 0 18 5 21 10 3 6 -3 10 -14 10 -12 0
-21 -4 -21 -10z"/>
<path d="M1090 920 c0 -6 11 -8 28 -4 39 10 40 14 4 14 -18 0 -32 -5 -32 -10z"/>
<path d="M2148 923 c7 -3 16 -2 19 1 4 3 -2 6 -13 5 -11 0 -14 -3 -6 -6z"/>
<path d="M730 910 c0 -5 5 -10 10 -10 6 0 10 5 10 10 0 6 -4 10 -10 10 -5 0
-10 -4 -10 -10z"/>
<path d="M1018 903 c7 -3 16 -2 19 1 4 3 -2 6 -13 5 -11 0 -14 -3 -6 -6z"/>
<path d="M1668 903 c-19 -5 -25 -23 -9 -23 17 0 41 12 41 21 0 9 -4 10 -32 2z"/>
<path d="M1612 893 c-6 -2 -10 -9 -7 -13 7 -11 35 -2 35 11 0 10 -8 10 -28 2z"/>
<path d="M610 881 c0 -5 9 -7 20 -4 11 3 20 7 20 9 0 2 -9 4 -20 4 -11 0 -20
-4 -20 -9z"/>
<path d="M740 886 c0 -2 7 -6 15 -10 8 -3 15 -1 15 4 0 6 -7 10 -15 10 -8 0
-15 -2 -15 -4z"/>
<path d="M690 870 c-13 -8 -12 -10 3 -10 9 0 17 5 17 10 0 12 -1 12 -20 0z"/>
<path d="M2120 870 c-24 -15 -7 -19 20 -5 15 8 19 14 10 14 -8 1 -22 -3 -30
-9z"/>
<path d="M2190 871 c0 -5 11 -8 25 -8 14 0 25 3 25 8 0 5 -11 9 -25 9 -14 0
-25 -4 -25 -9z"/>
<path d="M858 863 c7 -3 16 -2 19 1 4 3 -2 6 -13 5 -11 0 -14 -3 -6 -6z"/>
<path d="M2020 860 c0 -5 5 -10 11 -10 5 0 7 5 4 10 -3 6 -8 10 -11 10 -2 0
-4 -4 -4 -10z"/>
<path d="M1496 1424 c-7 -19 1 -34 18 -34 14 0 28 35 18 44 -11 11 -30 6 -36
-10z"/>
<path d="M1668 1195 c-3 -14 -1 -25 3 -25 5 0 9 11 9 25 0 14 -2 25 -4 25 -2
0 -6 -11 -8 -25z"/>
<path d="M525 756 c-18 -19 -20 -31 -17 -113 3 -84 5 -93 23 -93 17 0 19 7 19
60 0 53 2 60 20 60 25 0 27 -35 3 -45 -16 -6 -16 -8 6 -26 15 -12 28 -16 33
-11 15 15 46 2 51 -20 11 -39 32 -13 35 43 2 30 7 58 13 63 16 17 10 26 -15
26 -29 0 -38 -10 -26 -30 10 -16 -5 -40 -25 -40 -20 0 -28 33 -10 42 27 15 6
28 -46 28 -37 0 -49 4 -49 15 0 18 38 35 60 27 12 -4 11 -1 -3 15 -22 25 -46
25 -72 -1z"/>
<path d="M1032 758 c-7 -7 -18 -13 -24 -13 -6 0 -13 -6 -15 -12 -3 -7 2 -13
11 -13 9 0 16 -4 16 -10 0 -5 -20 -10 -44 -10 -46 0 -63 -11 -49 -32 4 -7 6
-21 4 -31 -4 -30 27 -55 80 -62 27 -4 56 -13 64 -21 7 -8 16 -14 19 -14 3 0 6
32 6 70 l0 70 45 0 c25 0 45 -4 45 -10 0 -5 -11 -10 -25 -10 -60 0 -47 -73 18
-95 41 -14 41 -14 51 29 l7 30 22 -26 c22 -26 80 -52 91 -41 3 4 6 32 6 63 0
62 6 76 27 59 15 -13 18 -49 3 -49 -18 0 -11 -28 14 -57 13 -15 28 -25 32 -20
4 4 2 13 -4 19 -35 35 1 36 68 4 27 -13 52 -21 54 -17 3 3 6 36 7 71 l3 65
-235 3 -235 2 -9 33 c-11 35 -33 45 -53 25z m28 -39 c6 -10 7 -19 2 -19 -5 0
-14 12 -20 26 -14 29 2 24 18 -7z m264 -83 c-10 -41 -21 -40 -19 2 3 47 3 48
16 35 5 -5 7 -22 3 -37z m156 13 c0 -13 -17 -19 -34 -13 -9 3 -16 15 -16 25 0
16 3 17 25 7 14 -6 25 -15 25 -19z m38 -10 c4 -40 -12 -30 -22 14 -5 21 -3 28
6 25 7 -3 14 -20 16 -39z m-503 21 c-3 -5 -13 -10 -21 -10 -8 0 -14 5 -14 10
0 6 9 10 21 10 11 0 17 -4 14 -10z m259 1 c3 -5 -1 -12 -10 -15 -22 -9 -24 -8
-24 9 0 16 25 21 34 6z m-88 -46 c-7 -18 -26 -20 -26 -2 0 18 24 41 28 27 2
-6 1 -17 -2 -25z m-198 7 c6 -18 -15 -14 -22 4 -4 10 -1 14 6 12 6 -2 14 -10
16 -16z m62 -12 c-6 -11 -16 -17 -25 -13 -12 4 -13 9 -4 19 6 8 18 14 26 14
11 0 11 -4 3 -20z"/>
<path d="M805 750 c-8 -14 3 -30 21 -30 8 0 14 -4 14 -10 0 -5 -22 -10 -49
-10 -49 0 -72 -12 -50 -26 9 -5 7 -11 -6 -20 -40 -30 2 -51 92 -47 15 1 23 -6
27 -23 7 -26 24 -32 30 -11 11 32 14 127 5 127 -6 0 -22 14 -36 30 -26 32 -38
36 -48 20z m45 -94 c0 -16 -57 -9 -63 8 -3 8 6 10 29 8 19 -2 34 -10 34 -16z"/>
<path d="M1697 698 c-9 -6 -8 -10 3 -17 8 -5 18 -7 22 -5 4 3 8 1 8 -3 0 -5
-10 -13 -22 -18 -37 -16 -34 -55 6 -94 39 -38 70 -37 64 1 -2 18 -11 24 -35
26 -42 4 -43 28 -3 37 33 7 35 9 44 46 5 25 3 27 -35 31 -22 2 -45 0 -52 -4z"/>
<path d="M1997 703 c-15 -14 -6 -23 23 -23 20 0 30 -5 30 -15 0 -10 -10 -15
-30 -15 -35 0 -49 -22 -30 -45 9 -11 16 -12 25 -5 9 8 17 6 29 -5 9 -9 16 -20
16 -25 0 -4 7 -10 15 -14 13 -4 15 7 15 73 l0 78 -43 1 c-24 1 -47 -1 -50 -5z"/>
<path d="M2126 701 c-3 -5 -3 -17 0 -26 4 -9 1 -28 -7 -42 -12 -22 -11 -27 6
-39 11 -8 25 -12 32 -9 7 3 19 8 27 11 9 3 17 -3 21 -15 7 -22 62 -57 73 -46
4 3 -4 14 -17 24 -20 15 -23 24 -19 67 2 27 6 56 9 64 3 12 -8 16 -58 18 -34
2 -64 -1 -67 -7z m72 -44 c2 -10 -3 -17 -12 -17 -10 0 -16 9 -16 21 0 24 23
21 28 -4z m-38 -47 c0 -5 -4 -10 -10 -10 -5 0 -10 5 -10 10 0 6 5 10 10 10 6
0 10 -4 10 -10z"/>
<path d="M40 225 l0 -165 1355 0 1355 0 0 165 0 165 -1355 0 -1355 0 0 -165z
m2650 0 l0 -115 -1290 0 -1290 0 0 115 0 115 1290 0 1290 0 0 -115z"/>
<path d="M2288 309 c-22 -12 -23 -29 -3 -29 12 0 15 -13 15 -60 0 -57 1 -60
25 -60 24 0 25 3 25 60 0 47 3 60 15 60 21 0 19 17 -4 30 -25 13 -51 12 -73
-1z"/>
<path d="M1747 303 c-4 -3 -7 -37 -7 -75 l0 -68 55 0 c30 0 55 5 55 10 0 6
-13 10 -30 10 -20 0 -30 5 -30 15 0 8 9 15 20 15 11 0 20 7 20 15 0 8 -9 15
-20 15 -13 0 -20 7 -20 20 0 16 7 20 30 20 20 0 30 5 30 15 0 11 -12 15 -48
15 -27 0 -52 -3 -55 -7z"/>
<path d="M1870 235 c0 -60 3 -75 15 -75 10 0 15 10 15 29 0 44 14 45 44 6 31
-40 69 -52 42 -13 -11 15 -14 33 -10 56 9 45 -16 72 -68 72 l-38 0 0 -75z m71
30 c0 -5 -9 -11 -21 -13 -20 -3 -27 8 -13 22 10 9 34 3 34 -9z"/>
<path d="M2052 298 c-25 -25 -7 -68 30 -68 10 0 21 -7 25 -15 8 -22 -4 -30
-22 -15 -16 13 -45 7 -45 -10 0 -15 50 -32 75 -26 23 6 49 51 39 68 -4 5 -23
17 -43 26 l-36 17 33 3 c20 2 32 8 29 15 -5 17 -69 21 -85 5z"/>
<path d="M2190 235 c0 -68 2 -75 20 -75 18 0 20 7 20 75 0 68 -2 75 -20 75
-18 0 -20 -7 -20 -75z"/>
<path d="M2415 301 c-3 -5 8 -30 25 -54 16 -25 30 -54 30 -66 0 -12 6 -21 15
-21 8 0 15 9 15 21 0 11 11 37 25 57 14 20 25 42 25 49 0 24 -21 23 -44 -2
-21 -22 -25 -23 -36 -10 -20 24 -48 37 -55 26z"/>
<path d="M1370 230 l0 -70 38 0 c56 0 82 23 82 71 0 36 -3 41 -35 55 -19 7
-46 14 -60 14 -24 0 -25 -2 -25 -70z m80 30 c19 -12 2 -63 -23 -68 -14 -3 -17
4 -17 37 0 42 10 50 40 31z"/>
<path d="M1520 230 c0 -63 2 -70 20 -70 18 0 20 7 20 70 0 63 -2 70 -20 70
-18 0 -20 -7 -20 -70z"/>
<path d="M1590 280 c0 -31 43 -120 58 -120 13 0 62 98 62 125 0 26 -17 16 -34
-20 -9 -19 -19 -35 -21 -35 -2 0 -13 16 -25 35 -24 39 -40 45 -40 15z"/>
<path d="M232 234 c5 -63 22 -85 67 -89 49 -4 64 14 69 84 4 56 3 61 -16 61
-18 0 -21 -7 -24 -52 -3 -45 -6 -53 -23 -53 -17 0 -20 8 -23 53 -3 48 -5 52
-29 52 -25 0 -25 -1 -21 -56z"/>
<path d="M400 220 c0 -63 2 -70 20 -70 16 0 20 7 20 35 0 19 4 35 9 35 5 0 19
-16 31 -35 35 -57 50 -46 50 35 0 63 -2 70 -20 70 -15 0 -20 -7 -20 -25 0 -14
-4 -25 -8 -25 -5 0 -19 11 -32 25 -40 42 -50 33 -50 -45z"/>
<path d="M560 220 c0 -63 2 -70 20 -70 18 0 20 7 20 70 0 63 -2 70 -20 70 -18
0 -20 -7 -20 -70z"/>
<path d="M645 277 c-17 -13 -17 -14 4 -20 18 -4 21 -12 21 -56 0 -44 3 -51 20
-51 17 0 20 7 20 50 0 36 4 52 15 56 12 5 13 10 4 20 -15 18 -60 18 -84 1z"/>
<path d="M770 277 c0 -7 11 -23 25 -35 16 -14 25 -32 25 -52 0 -23 4 -30 20
-30 16 0 20 7 20 33 0 21 8 41 20 52 22 20 27 45 8 45 -6 0 -22 -9 -34 -21
l-22 -21 -11 21 c-13 23 -51 29 -51 8z"/>
<path d="M1040 225 c0 -58 2 -65 20 -65 18 0 20 7 20 65 0 58 -2 65 -20 65
-18 0 -20 -7 -20 -65z"/>
<path d="M1110 225 c0 -58 2 -65 20 -65 16 0 20 7 20 38 l1 37 34 -37 c20 -21
40 -38 45 -38 6 0 10 29 10 65 0 58 -2 65 -20 65 -16 0 -20 -7 -20 -32 l0 -32
-33 32 c-49 47 -57 42 -57 -33z"/>
</g>
</svg>
