<?xml version="1.0" standalone="no"?>
<!DOCTYPE svg PUBLIC "-//W3C//DTD SVG 20010904//EN"
 "http://www.w3.org/TR/2001/REC-SVG-20010904/DTD/svg10.dtd">
<svg version="1.0" xmlns="http://www.w3.org/2000/svg"
 width="1390.000000pt" height="862.000000pt" viewBox="0 0 1390.000000 862.000000"
 preserveAspectRatio="xMidYMid meet">

<g transform="translate(0.000000,862.000000) scale(0.100000,-0.100000)"
fill="#000000" stroke="none">
<path d="M10899 6590 c-223 -20 -413 -93 -520 -200 -97 -96 -139 -205 -139
-360 0 -162 40 -270 139 -373 106 -112 231 -180 531 -290 293 -107 394 -167
441 -263 41 -86 23 -200 -45 -281 -38 -45 -150 -99 -238 -113 -115 -20 -350
-8 -468 24 -141 37 -228 75 -324 141 l-66 45 0 -153 c0 -83 3 -161 6 -173 4
-14 26 -28 73 -46 285 -111 722 -138 1020 -62 323 82 494 276 495 564 0 164
-44 284 -147 396 -105 114 -265 206 -575 328 -347 136 -442 211 -442 347 0 74
31 134 89 170 62 40 122 56 251 70 195 20 395 -17 580 -109 52 -26 98 -48 103
-50 4 -2 7 59 7 136 l0 141 -57 21 c-198 75 -482 111 -714 90z"/>
<path d="M2094 6516 c-3 -7 -3 -517 -1 -1132 4 -1255 -1 -1169 81 -1465 94
-342 316 -772 528 -1024 154 -184 353 -357 563 -490 113 -71 343 -184 455
-223 l85 -30 91 33 c453 164 888 502 1151 895 182 273 330 603 407 905 63 251
61 192 61 1420 l0 1120 -1708 3 c-1432 2 -1708 0 -1713 -12z m2625 -157 c67
-14 162 -77 205 -136 39 -52 76 -155 76 -208 0 -24 5 -35 19 -40 31 -10 120
-111 146 -166 91 -198 -22 -444 -234 -506 -72 -21 -179 -14 -248 17 l-53 22
-52 -23 c-75 -34 -221 -34 -292 -1 -194 89 -276 308 -188 497 28 59 108 149
142 160 13 4 19 21 24 68 15 147 135 283 280 318 47 11 119 10 175 -2z m-1844
-60 c43 -6 106 -19 141 -30 64 -20 64 -20 130 0 113 35 224 45 380 32 76 -7
149 -14 162 -18 l22 -5 0 -440 0 -440 -22 6 c-13 3 -81 11 -152 18 -142 13
-269 3 -387 -31 -64 -18 -65 -18 -158 5 -151 38 -342 41 -509 8 l-32 -6 0 440
0 440 43 8 c129 22 282 27 382 13z m2555 -1526 c0 -448 -7 -530 -54 -728 -89
-366 -281 -763 -507 -1045 -143 -180 -326 -343 -538 -482 -120 -79 -369 -206
-466 -238 l-65 -22 -62 21 c-88 29 -305 137 -418 206 -206 128 -439 329 -572
494 -202 250 -399 634 -494 963 -73 254 -77 295 -82 781 -2 241 -1 445 2 453
5 12 228 14 1631 14 l1625 0 0 -417z"/>
<path d="M4554 6219 c-51 -14 -120 -83 -138 -136 -9 -26 -16 -47 -16 -48 0 -1
27 -5 59 -8 32 -4 84 -16 114 -27 l55 -21 75 26 c42 14 94 25 117 25 45 0 44
-1 20 66 -36 96 -175 156 -286 123z"/>
<path d="M4435 5879 c12 -21 48 -59 55 -59 10 0 30 49 22 54 -4 2 -25 7 -46
11 -32 6 -37 5 -31 -6z"/>
<path d="M4763 5880 c-20 -8 -22 -12 -11 -35 6 -14 14 -25 18 -25 7 0 43 38
54 58 8 14 -27 16 -61 2z"/>
<path d="M4277 5829 c-27 -16 -66 -92 -73 -142 -13 -96 41 -193 132 -237 36
-18 58 -21 109 -18 35 2 67 7 71 11 4 3 0 17 -8 29 -23 36 -48 118 -48 157 0
32 -7 41 -53 77 -29 22 -67 61 -83 86 -24 37 -34 44 -47 37z"/>
<path d="M4936 5794 c-16 -25 -52 -64 -80 -86 -47 -37 -52 -44 -58 -95 -4 -31
-19 -80 -33 -111 -14 -30 -23 -57 -20 -60 11 -11 112 -13 150 -3 111 30 187
163 156 277 -11 40 -64 124 -79 124 -4 0 -20 -21 -36 -46z"/>
<path d="M4600 5621 c0 -18 22 -71 30 -71 8 0 30 53 30 71 0 5 -13 9 -30 9
-16 0 -30 -4 -30 -9z"/>
<path d="M2671 6160 c-59 -9 -77 -21 -67 -45 5 -15 15 -16 59 -11 88 11 189 8
240 -8 55 -16 77 -12 77 14 0 45 -162 71 -309 50z"/>
<path d="M3260 6153 c-52 -14 -66 -22 -68 -39 -4 -30 18 -35 75 -18 43 14 95
16 258 10 49 -1 63 28 20 44 -52 20 -215 21 -285 3z"/>
<path d="M2691 6029 c-80 -9 -97 -18 -87 -44 5 -14 20 -15 118 -9 93 5 124 3
176 -11 48 -14 66 -15 75 -6 18 18 -4 44 -49 57 -62 18 -152 23 -233 13z"/>
<path d="M3302 6029 c-64 -11 -112 -34 -112 -55 0 -24 24 -26 85 -9 43 13 86
16 174 14 110 -4 116 -3 116 16 0 14 -9 21 -35 26 -67 13 -175 17 -228 8z"/>
<path d="M2651 5892 c-41 -8 -64 -37 -41 -52 8 -6 24 -8 35 -5 66 16 174 16
238 0 37 -9 74 -14 82 -11 27 10 16 37 -22 53 -41 17 -230 27 -292 15z"/>
<path d="M3259 5886 c-57 -16 -69 -23 -69 -41 0 -26 22 -28 96 -10 63 16 85
17 166 8 77 -9 95 -9 108 3 12 12 12 16 -2 30 -22 23 -232 30 -299 10z"/>
<path d="M2668 5761 c-54 -8 -74 -22 -64 -46 5 -14 16 -15 78 -8 98 11 174 7
226 -11 48 -17 72 -12 72 14 0 45 -164 71 -312 51z"/>
<path d="M3261 5755 c-66 -19 -71 -22 -71 -45 0 -27 24 -31 72 -13 40 15 97
17 263 10 30 -2 40 2 43 15 5 27 -31 38 -145 43 -79 4 -123 1 -162 -10z"/>
<path d="M3060 4999 c-30 -4 -63 -6 -72 -3 -21 6 -24 -16 -6 -34 9 -9 3 -12
-27 -12 -22 0 -58 -5 -80 -11 -40 -11 -95 -44 -95 -57 0 -4 16 -18 34 -32 l34
-25 -29 -12 c-16 -7 -36 -28 -48 -52 -12 -22 -29 -44 -38 -50 -14 -8 -15 -13
-5 -35 6 -15 23 -31 37 -36 14 -5 25 -14 25 -19 0 -10 -43 -47 -63 -54 -18 -6
20 -45 59 -59 27 -9 31 -15 22 -25 -6 -8 -14 -30 -17 -50 l-6 -35 -67 63 c-63
61 -68 68 -93 154 -59 201 -66 215 -109 215 -13 0 -31 9 -41 20 -10 11 -29 20
-43 20 -24 0 -25 -1 -7 -20 24 -27 13 -50 -25 -50 -29 0 -40 -13 -21 -24 14
-9 -15 -79 -35 -86 -17 -6 -17 -8 4 -19 14 -8 22 -20 21 -34 -5 -53 3 -70 56
-120 30 -28 55 -56 55 -62 0 -6 16 -35 36 -65 112 -170 134 -234 134 -389 0
-78 0 -78 52 -56 23 9 32 -39 23 -122 l-7 -65 46 31 c25 18 50 41 56 51 7 14
21 20 43 20 27 0 84 13 157 36 9 3 22 -7 33 -27 l18 -32 32 31 c18 18 36 32
40 32 4 0 7 -18 7 -40 0 -46 23 -96 74 -163 l36 -47 -39 -152 c-21 -84 -48
-178 -60 -209 l-22 -57 -102 -4 c-91 -3 -108 -7 -152 -33 -27 -16 -53 -34 -57
-40 -14 -19 -8 -26 13 -20 29 9 42 -13 23 -39 -20 -29 -17 -39 7 -25 27 14 42
-4 34 -44 -4 -24 -2 -27 13 -18 12 7 22 5 35 -6 11 -11 34 -16 65 -15 70 1
253 50 278 73 12 11 31 46 43 77 56 155 146 259 285 333 l59 32 -26 22 -26 23
22 20 c28 25 59 41 109 55 l40 12 -23 28 c-18 24 -20 31 -8 39 40 27 99 48
142 48 38 0 47 3 47 18 0 10 -5 23 -11 29 -15 15 -5 30 27 36 21 4 30 -2 52
-37 33 -51 87 -121 125 -163 37 -39 34 -58 -28 -198 l-44 -100 -43 -7 c-24 -3
-71 -7 -104 -7 -45 -1 -68 -6 -87 -21 -14 -11 -30 -20 -36 -20 -14 0 -51 -37
-51 -50 0 -5 13 -7 30 -3 23 4 30 2 30 -10 0 -9 -4 -19 -10 -22 -5 -3 -10 -13
-10 -21 0 -10 7 -13 24 -8 27 6 44 -12 27 -29 -6 -6 -11 -17 -11 -24 0 -11 5
-11 21 -3 16 9 24 8 38 -4 10 -9 33 -16 52 -16 37 0 220 45 251 61 9 5 38 49
62 97 42 80 52 91 111 131 65 42 66 43 48 63 -17 19 -17 21 12 44 17 14 42 27
58 31 42 9 41 19 -7 42 -31 16 -48 32 -61 61 -19 42 -17 70 10 135 l17 40 25
-30 c50 -58 106 -121 154 -172 27 -28 49 -58 49 -67 0 -23 -60 -196 -86 -247
-26 -52 -45 -59 -159 -59 -53 0 -66 -4 -115 -38 -30 -21 -56 -46 -58 -56 -3
-15 -1 -16 17 -4 31 19 49 -3 27 -33 -23 -33 -20 -40 10 -27 30 14 47 -3 38
-39 -5 -18 -2 -21 15 -16 12 3 28 0 36 -7 31 -26 268 24 306 64 11 12 46 82
78 156 53 123 62 138 102 165 104 71 97 62 74 80 -20 16 -20 17 10 41 17 13
45 29 64 35 l34 12 -24 18 c-13 10 -35 21 -49 24 -14 4 -32 13 -40 21 -8 7
-32 28 -53 45 -66 55 -70 71 -78 299 -4 113 -12 223 -18 245 -5 22 -9 40 -8
41 1 0 50 8 109 17 202 31 309 83 353 171 28 56 31 102 11 159 -27 73 -90 116
-187 124 -72 7 -148 -8 -307 -58 -252 -80 -544 -100 -652 -44 -38 20 -55 64
-41 108 18 53 45 61 222 65 155 4 157 3 196 -22 23 -16 73 -33 118 -43 65 -13
92 -13 169 -4 93 12 123 24 88 35 -11 4 -23 14 -26 23 -5 13 0 15 34 9 29 -4
56 0 97 15 32 11 85 24 118 27 l60 7 -37 28 c-28 22 -52 30 -98 34 -58 6 -60
7 -44 24 24 27 14 31 -45 18 -43 -9 -64 -8 -116 5 -73 18 -181 21 -222 5 -15
-5 -47 -22 -71 -35 -42 -25 -50 -26 -230 -27 -170 -2 -191 -4 -227 -23 -49
-27 -70 -49 -90 -97 -34 -82 -6 -186 62 -231 64 -42 143 -58 298 -58 188 0
301 19 559 96 163 48 256 31 256 -48 0 -71 -92 -112 -304 -136 -75 -8 -124 -7
-197 2 -76 9 -141 9 -291 0 -207 -12 -336 -6 -497 23 -84 16 -92 19 -106 48
-8 16 -14 31 -13 32 2 2 22 12 45 24 56 28 59 36 19 60 -44 28 -50 46 -20 60
13 6 29 22 36 36 9 21 8 29 -9 48 -10 12 -27 35 -37 50 -10 16 -32 35 -49 42
-18 8 -27 15 -22 15 6 0 23 12 39 26 27 24 28 26 10 45 -21 23 -103 49 -156
49 -38 0 -38 1 -24 23 l15 22 -72 4 c-122 7 -154 4 -189 -16 -18 -10 -38 -29
-44 -40 -10 -21 -11 -21 -36 11 -18 23 -41 37 -72 45 -49 12 -47 12 -126 0z
m1430 -154 c29 -18 -16 -25 -166 -25 -186 0 -221 -8 -254 -62 -43 -71 -17
-143 64 -180 46 -21 65 -23 206 -22 183 0 293 18 466 74 158 51 240 64 312 49
101 -21 157 -105 132 -198 -15 -56 -43 -87 -113 -120 -77 -38 -147 -56 -274
-71 -54 -7 -100 -13 -101 -15 -2 -2 1 -19 7 -37 16 -51 30 -201 30 -330 -1
-154 16 -214 73 -262 23 -20 45 -36 50 -36 15 0 8 -42 -12 -71 -23 -32 -107
-205 -170 -352 -23 -54 -50 -102 -59 -107 -18 -9 -208 -60 -226 -60 -7 0 -10
12 -7 31 4 30 4 31 -25 25 -29 -7 -30 -5 -25 19 3 20 0 27 -16 31 -14 4 -18
11 -14 27 8 33 19 37 124 37 l96 0 35 74 c20 40 50 119 67 174 l32 101 -33 39
c-19 22 -68 77 -109 123 -77 85 -119 141 -199 259 -54 81 -117 136 -137 119
-12 -10 -11 -17 6 -44 l20 -32 -323 -93 c-177 -51 -325 -96 -329 -99 -4 -3 -2
-27 4 -52 l11 -46 -153 -253 c-83 -138 -159 -273 -167 -299 -25 -73 -43 -86
-158 -115 -140 -35 -155 -35 -155 5 0 29 -2 30 -31 24 -29 -6 -30 -6 -20 13
17 32 13 42 -14 42 -25 0 -25 0 -10 30 15 29 17 30 98 31 134 2 135 3 168 86
16 39 45 136 65 214 31 126 40 148 78 198 58 75 76 113 83 170 l5 48 34 -36
c32 -35 33 -36 48 -16 30 39 56 125 56 185 0 33 2 60 4 60 2 0 17 -7 32 -15
50 -26 64 -20 64 24 0 27 14 65 44 123 24 45 50 102 57 126 10 36 16 42 33 38
156 -39 391 -53 596 -37 113 9 173 9 272 0 109 -11 142 -10 240 3 141 21 208
42 255 83 32 27 38 39 38 72 0 51 -27 91 -73 110 -48 20 -146 8 -285 -37 -145
-46 -276 -70 -427 -77 -263 -11 -386 33 -405 146 -15 88 34 163 122 187 49 14
340 13 363 -1z m-1245 -22 l23 -28 30 28 29 28 61 -25 c34 -14 80 -26 102 -26
23 0 50 -5 61 -10 25 -14 25 -60 -1 -93 -21 -26 -21 -26 -2 -64 l20 -38 -64
-76 c-60 -72 -64 -80 -64 -127 0 -41 -4 -52 -24 -65 -13 -9 -30 -35 -37 -59
-13 -39 -17 -43 -58 -51 -44 -9 -115 -3 -138 11 -7 5 -15 21 -19 37 -5 29 -4
30 38 32 52 3 92 3 137 0 20 -1 36 3 38 11 3 8 -6 12 -29 12 -41 0 -58 15 -58
52 0 22 8 32 41 48 l41 21 -7 82 -6 82 53 30 53 30 -59 3 c-32 2 -65 1 -72 -2
-11 -4 -14 -30 -14 -106 l0 -100 -72 0 -73 -1 38 -30 c29 -25 37 -38 37 -64 0
-23 -5 -35 -17 -39 -35 -11 -88 -9 -110 3 -19 10 -23 20 -23 63 0 48 -4 56
-60 124 -33 40 -60 77 -60 82 0 6 8 24 17 40 16 28 16 30 -5 57 -46 58 -20
105 58 105 30 0 68 9 102 25 29 14 57 25 61 25 4 0 19 -12 32 -27z m-663 -181
l48 -151 71 -61 c38 -33 79 -66 90 -73 10 -6 19 -18 19 -25 0 -6 20 -50 45
-95 33 -61 45 -95 45 -125 0 -37 3 -42 23 -42 12 0 37 9 56 21 l34 20 -6 -53
c-4 -29 -2 -70 2 -90 l9 -37 -47 -15 c-25 -8 -62 -18 -81 -21 l-35 -6 -124
208 c-68 114 -137 228 -152 253 -16 25 -40 68 -55 95 -14 28 -48 71 -75 96
-48 45 -63 79 -35 79 7 0 20 7 27 16 12 14 10 19 -14 38 -33 27 -36 48 -4 41
36 -8 53 9 39 39 -11 24 -10 26 13 26 13 0 27 5 30 11 16 25 32 -6 77 -149z
m1792 -759 c22 -20 44 -42 48 -49 5 -7 -3 -36 -17 -66 -28 -61 -32 -125 -10
-169 15 -28 14 -31 -14 -67 -16 -20 -64 -106 -106 -190 -43 -84 -86 -157 -95
-162 -21 -11 -206 -60 -227 -60 -9 0 -12 6 -9 18 8 25 -9 46 -33 39 -18 -4
-19 -1 -14 24 5 24 2 29 -15 29 -16 0 -19 5 -14 23 8 33 19 37 124 37 115 0
103 -10 173 153 66 157 66 151 0 227 -56 64 -125 162 -125 176 0 4 32 4 70 1
74 -6 84 0 54 34 -15 17 -13 18 23 24 21 4 43 8 48 10 6 2 30 4 54 4 37 1 50
-5 85 -36z"/>
<path d="M3100 4665 c0 -7 85 -55 98 -55 7 0 12 14 12 30 0 30 -1 30 -55 30
-30 0 -55 -2 -55 -5z"/>
<path d="M6000 5520 l0 -1010 140 0 140 0 0 737 c0 590 3 735 13 725 6 -7 230
-324 497 -705 436 -622 490 -694 534 -722 l49 -30 204 -3 203 -3 0 1010 0
1011 -145 0 -145 0 -2 -735 -3 -735 -470 672 c-258 370 -488 693 -510 717 -68
74 -91 81 -312 81 l-193 0 0 -1010z"/>
<path d="M8182 5788 c3 -731 4 -744 26 -821 77 -276 261 -436 577 -502 110
-23 327 -30 453 -16 371 43 584 197 683 496 l24 70 3 758 3 757 -211 0 -210 0
0 -707 c0 -771 -2 -792 -57 -901 -64 -126 -175 -202 -325 -223 -231 -31 -429
69 -500 253 -45 117 -47 164 -48 891 l0 687 -210 0 -211 0 3 -742z"/>
<path d="M8430 3805 l0 -245 30 0 30 0 0 245 0 245 -30 0 -30 0 0 -245z"/>
<path d="M7080 4000 c0 -28 3 -30 35 -30 32 0 35 2 35 30 0 28 -3 30 -35 30
-32 0 -35 -2 -35 -30z"/>
<path d="M9640 4000 c0 -28 3 -30 35 -30 32 0 35 2 35 30 0 28 -3 30 -35 30
-32 0 -35 -2 -35 -30z"/>
<path d="M11020 4000 c0 -28 3 -30 35 -30 32 0 35 2 35 30 0 28 -3 30 -35 30
-32 0 -35 -2 -35 -30z"/>
<path d="M6000 3786 l0 -226 30 0 30 0 0 182 c0 128 3 179 11 171 5 -5 52 -86
103 -179 l94 -169 41 -3 41 -3 0 225 0 226 -30 0 -30 0 -2 -177 -3 -178 -96
175 -97 175 -46 3 -46 3 0 -225z"/>
<path d="M8772 3843 c3 -162 4 -170 30 -215 61 -102 217 -106 291 -6 28 37 36
95 37 251 l0 137 -35 0 -35 0 0 -150 c0 -163 -9 -204 -51 -234 -27 -19 -77
-21 -113 -5 -46 21 -56 62 -56 233 l0 156 -36 0 -36 0 4 -167z"/>
<path d="M11248 3978 c-24 -8 -28 -15 -28 -49 0 -38 -1 -39 -35 -39 -31 0 -35
-3 -35 -25 0 -22 4 -25 34 -25 l34 0 4 -121 c3 -118 4 -121 31 -145 45 -39
127 -31 127 11 0 21 -4 23 -34 18 -53 -8 -66 20 -66 139 l0 98 45 0 c41 0 45
2 45 24 0 22 -5 25 -42 28 l-43 3 -5 46 c-5 45 -6 46 -32 37z"/>
<path d="M6868 3973 c-13 -3 -18 -15 -18 -44 0 -38 -1 -39 -35 -39 -31 0 -35
-3 -35 -25 0 -22 4 -25 34 -25 l34 0 3 -119 c4 -134 14 -155 75 -167 53 -10
84 2 84 31 0 22 -3 25 -24 19 -13 -3 -34 -1 -45 6 -19 10 -21 19 -21 120 l0
110 40 0 c36 0 40 3 40 25 0 23 -4 25 -40 25 l-40 0 0 45 c0 47 -5 50 -52 38z"/>
<path d="M6520 3887 c-27 -9 -36 -18 -38 -39 -4 -31 2 -33 38 -13 59 34 140 5
140 -50 0 -24 -3 -25 -61 -25 -121 0 -187 -69 -148 -154 25 -54 142 -74 188
-32 22 20 31 20 31 1 0 -10 10 -15 28 -15 l27 0 -5 138 c-5 152 -10 165 -67
189 -39 16 -86 16 -133 0z m140 -202 c0 -62 -67 -103 -119 -74 -32 18 -39 54
-16 79 18 20 39 27 98 29 36 1 37 0 37 -34z"/>
<path d="M7330 3878 c-118 -60 -118 -245 0 -306 81 -42 181 -14 226 63 28 46
25 139 -5 189 -45 72 -140 95 -221 54z m142 -57 c27 -24 32 -36 36 -89 4 -60
3 -63 -31 -97 -75 -75 -167 -23 -167 95 0 46 4 56 34 86 44 44 83 45 128 5z"/>
<path d="M7780 3889 c-13 -5 -33 -17 -42 -26 -17 -15 -18 -15 -18 5 0 18 -6
22 -30 22 l-30 0 0 -165 0 -165 30 0 30 0 0 88 c0 48 5 104 10 124 21 73 99
103 139 52 19 -24 21 -40 21 -145 l0 -119 30 0 30 0 0 135 c0 133 0 135 -28
166 -21 24 -38 32 -72 35 -25 2 -56 -1 -70 -7z"/>
<path d="M8109 3884 c-30 -12 -35 -19 -32 -39 5 -22 6 -23 39 -9 68 29 131 8
136 -46 3 -24 0 -25 -52 -28 -77 -3 -94 -8 -129 -38 -25 -21 -31 -33 -31 -66
0 -52 14 -77 55 -94 46 -19 84 -18 128 5 29 15 37 16 37 5 0 -9 11 -14 31 -14
l31 0 -4 133 c-2 107 -7 137 -21 159 -32 47 -117 62 -188 32z m144 -204 c-3
-67 -88 -105 -133 -60 -11 11 -20 26 -20 33 0 38 55 67 120 64 33 -2 35 -4 33
-37z"/>
<path d="M9360 3893 c-8 -3 -25 -15 -37 -26 l-23 -20 0 21 c0 18 -6 22 -30 22
l-30 0 0 -165 0 -165 29 0 29 0 4 116 3 116 33 29 c47 43 92 38 117 -12 11
-20 15 -61 15 -139 l0 -110 30 0 30 0 0 120 c0 145 -12 184 -64 205 -36 15
-78 18 -106 8z"/>
<path d="M10205 3880 c-49 -24 -74 -63 -82 -128 -17 -145 93 -232 240 -191 32
9 37 14 37 41 0 25 -3 29 -17 23 -56 -22 -77 -26 -108 -21 -37 7 -85 56 -85
87 0 18 8 19 115 19 l115 0 0 37 c0 119 -108 186 -215 133z m119 -52 c13 -13
27 -33 31 -45 6 -23 5 -23 -79 -23 -98 0 -108 10 -57 61 35 35 71 37 105 7z"/>
<path d="M10620 3893 c-8 -3 -25 -15 -37 -26 l-23 -20 0 21 c0 17 -6 22 -25
22 l-25 0 0 -165 0 -165 29 0 29 0 4 115 c3 109 4 116 30 141 17 18 38 27 57
27 27 0 31 4 31 29 0 24 -4 28 -27 27 -16 0 -35 -3 -43 -6z"/>
<path d="M10780 3882 c-27 -13 -37 -26 -45 -55 -12 -53 6 -84 75 -122 42 -24
56 -37 58 -57 5 -44 -52 -60 -120 -33 -14 6 -18 2 -18 -19 0 -34 37 -49 104
-43 40 4 55 11 78 36 51 58 33 115 -52 160 -65 35 -75 49 -54 80 16 23 48 27
88 11 24 -9 26 -7 26 19 0 21 -6 30 -22 35 -40 10 -82 6 -118 -12z"/>
<path d="M7090 3725 l0 -165 30 0 30 0 0 165 0 165 -30 0 -30 0 0 -165z"/>
<path d="M9640 3725 l0 -165 30 0 30 0 0 165 0 165 -30 0 -30 0 0 -165z"/>
<path d="M9806 3793 c20 -54 46 -127 58 -163 22 -64 23 -65 62 -68 l39 -3 58
160 c31 88 57 162 57 165 0 3 -13 6 -29 6 -27 0 -30 -4 -64 -102 -64 -185 -54
-182 -102 -33 l-42 130 -36 3 -37 3 36 -98z"/>
<path d="M11020 3725 l0 -165 30 0 30 0 0 165 0 165 -30 0 -30 0 0 -165z"/>
<path d="M11439 3783 c22 -60 48 -133 60 -163 12 -30 21 -67 21 -81 0 -35 -51
-83 -79 -74 -18 5 -21 2 -21 -19 0 -59 105 -36 138 31 11 21 47 115 80 208 33
94 64 178 68 188 6 16 2 18 -26 15 -33 -3 -33 -3 -78 -138 l-45 -135 -44 138
-44 137 -34 0 -34 0 38 -107z"/>
<path d="M6461 3256 c-15 -16 -24 -41 -28 -80 l-6 -56 -38 0 c-35 0 -39 -3
-39 -25 0 -22 4 -25 40 -25 l40 0 0 -140 0 -140 30 0 30 0 0 140 0 140 45 0
c41 0 45 2 45 24 0 22 -5 25 -42 28 -40 3 -43 5 -46 34 -4 40 25 77 61 77 22
0 27 4 27 23 0 22 -4 24 -48 24 -38 0 -53 -5 -71 -24z"/>
<path d="M7140 3225 c0 -33 2 -35 35 -35 33 0 35 2 35 35 0 33 -2 35 -35 35
-33 0 -35 -2 -35 -35z"/>
<path d="M6852 3233 c-40 -19 -62 -59 -62 -111 0 -52 27 -84 95 -117 67 -31
95 -60 95 -96 0 -55 -82 -87 -153 -60 -22 9 -25 7 -30 -17 -7 -36 -3 -40 48
-48 68 -10 132 3 167 35 26 23 32 37 35 82 5 72 -16 105 -95 147 -74 40 -92
56 -92 86 0 42 32 59 102 55 62 -4 63 -3 66 22 3 22 -2 27 -29 33 -54 10 -112
6 -147 -11z"/>
<path d="M6059 3107 c-59 -32 -84 -76 -84 -152 0 -76 28 -125 89 -154 55 -27
101 -26 156 2 118 60 119 245 0 305 -57 28 -105 28 -161 -1z m147 -61 c30 -30
34 -40 34 -85 0 -62 -16 -98 -51 -117 -77 -40 -149 15 -149 113 0 45 31 100
63 113 42 17 68 11 103 -24z"/>
<path d="M7440 3119 c-13 -6 -33 -17 -42 -26 -17 -15 -18 -15 -18 5 0 18 -6
22 -30 22 l-30 0 0 -165 0 -165 29 0 29 0 4 116 3 116 33 29 c50 45 101 36
121 -22 6 -18 11 -79 11 -135 l0 -104 30 0 30 0 0 120 c0 145 -12 184 -64 205
-40 17 -70 18 -106 4z"/>
<path d="M7790 3119 c-92 -38 -127 -181 -67 -271 13 -18 34 -39 47 -46 35 -18
124 -10 150 13 26 23 34 15 26 -29 -17 -91 -91 -116 -212 -69 -10 4 -14 -3
-14 -25 0 -29 3 -31 56 -42 67 -14 127 -7 172 21 54 32 62 66 62 269 l0 180
-30 0 c-24 0 -30 -4 -30 -22 l0 -21 -24 22 c-28 27 -97 37 -136 20z m127 -73
c63 -73 20 -206 -68 -206 -57 0 -94 57 -86 134 4 40 11 55 37 79 26 23 39 28
64 23 17 -3 41 -17 53 -30z"/>
<path d="M8170 3116 c-26 -10 -36 -19 -38 -39 -4 -32 -5 -31 41 -12 20 8 48
15 62 15 31 0 75 -41 75 -70 0 -18 -6 -20 -60 -20 -97 0 -160 -44 -160 -111 0
-34 28 -76 60 -89 38 -16 115 -8 139 14 22 20 31 20 31 1 0 -9 9 -15 25 -15
l25 0 0 128 c0 81 -5 136 -13 152 -26 52 -112 73 -187 46z m140 -200 c0 -69
-91 -114 -134 -67 -41 45 13 101 97 101 35 0 37 -1 37 -34z"/>
<path d="M8578 3107 c-45 -23 -48 -23 -48 -6 0 14 -7 19 -25 19 l-25 0 0 -235
0 -235 30 0 30 0 0 85 0 84 35 -21 c28 -16 47 -19 86 -16 85 8 129 72 129 184
0 128 -104 197 -212 141z m105 -47 c79 -62 42 -230 -51 -230 -89 0 -126 156
-52 223 36 32 68 34 103 7z"/>
<path d="M8943 3109 c-101 -50 -122 -190 -40 -276 38 -41 87 -57 144 -49 117
16 177 144 121 256 -41 81 -140 111 -225 69z m143 -63 c57 -57 47 -168 -17
-201 -42 -22 -75 -18 -110 13 -27 24 -33 37 -36 83 -9 118 88 180 163 105z"/>
<path d="M9361 3105 c-30 -26 -31 -26 -31 -6 0 17 -6 21 -30 21 l-30 0 0 -165
0 -165 29 0 28 0 5 103 c6 141 26 177 99 177 27 0 30 3 27 28 -4 39 -54 43
-97 7z"/>
<path d="M9606 3120 c-65 -21 -100 -78 -99 -167 1 -69 20 -113 65 -146 33 -25
122 -34 172 -17 30 10 36 16 36 40 l0 29 -37 -16 c-54 -22 -111 -12 -145 27
-16 16 -28 39 -28 50 0 19 7 20 121 20 l121 0 -7 43 c-11 63 -30 103 -59 122
-31 21 -100 28 -140 15z m87 -51 c23 -10 47 -46 47 -69 0 -6 -38 -10 -86 -10
-84 0 -85 0 -78 23 17 56 66 79 117 56z"/>
<path d="M7140 2955 l0 -165 30 0 30 0 0 165 0 165 -30 0 -30 0 0 -165z"/>
</g>
</svg>
