<?xml version="1.0" standalone="no"?>
<!DOCTYPE svg PUBLIC "-//W3C//DTD SVG 20010904//EN"
 "http://www.w3.org/TR/2001/REC-SVG-20010904/DTD/svg10.dtd">
<svg version="1.0" xmlns="http://www.w3.org/2000/svg"
 width="512.000000pt" height="512.000000pt" viewBox="0 0 512.000000 512.000000"
 preserveAspectRatio="xMidYMid meet">

<g transform="translate(0.000000,512.000000) scale(0.100000,-0.100000)"
fill="#000000" stroke="none">
<path d="M2445 4938 l-118 -124 -131 89 c-72 49 -138 91 -146 93 -13 4 -71
-82 -168 -251 -9 -16 -18 -32 -19 -34 -2 -2 -8 1 -15 7 -13 10 -286 122 -299
122 -5 0 -95 -241 -115 -309 -2 -7 -10 -11 -17 -8 -29 11 -318 59 -324 54 -3
-3 -15 -81 -27 -172 l-21 -165 -167 0 c-92 0 -169 -4 -173 -9 -5 -8 6 -177 20
-297 l4 -40 -117 -28 c-64 -15 -140 -34 -168 -42 l-51 -15 48 -161 c27 -89 47
-163 46 -165 -2 -1 -71 -35 -153 -74 -82 -39 -150 -72 -151 -73 -3 -3 143
-275 156 -290 6 -8 -33 -42 -124 -111 -74 -55 -134 -105 -135 -112 0 -12 186
-235 202 -241 17 -8 4 -28 -97 -147 -58 -68 -105 -127 -105 -133 0 -5 58 -54
130 -108 71 -55 130 -102 130 -105 0 -3 -36 -70 -79 -150 -67 -120 -77 -146
-65 -155 8 -6 77 -40 154 -75 101 -46 139 -68 136 -79 -2 -8 -23 -81 -47 -162
-24 -81 -40 -150 -37 -154 9 -8 283 -74 309 -74 17 0 19 -6 14 -52 -15 -149
-23 -284 -17 -290 4 -4 82 -10 173 -14 l165 -7 21 -165 c12 -90 24 -166 26
-168 2 -2 79 10 171 27 92 17 168 29 169 27 1 -2 25 -70 52 -151 28 -82 53
-153 56 -159 4 -6 68 16 165 57 87 38 159 64 161 59 2 -5 42 -71 89 -147 l85
-137 28 16 c15 9 78 51 140 95 62 43 116 79 119 78 4 0 56 -54 116 -120 60
-65 114 -119 120 -118 6 1 61 54 121 119 103 110 129 131 137 112 5 -14 259
-184 265 -178 3 3 41 63 84 133 43 70 82 134 86 141 6 9 48 -4 166 -54 87 -36
160 -64 161 -62 6 8 106 297 106 307 0 14 -8 15 175 -18 88 -16 163 -26 167
-23 4 4 17 79 29 168 l22 161 165 7 c91 4 168 9 172 11 3 2 0 70 -7 152 -16
201 -17 193 8 193 20 0 301 68 307 75 2 2 -17 76 -43 165 -26 89 -45 162 -43
164 1 1 69 33 150 72 82 38 148 73 148 78 0 10 -102 202 -138 261 -14 21 -20
41 -15 42 15 5 258 194 261 203 2 5 -46 66 -106 136 l-109 127 108 126 c60 69
108 130 106 136 -2 5 -62 54 -133 108 -71 54 -128 101 -127 105 1 4 36 69 78
146 42 76 75 142 73 147 -2 5 -68 40 -147 79 -79 38 -146 72 -148 74 -2 2 17
75 42 161 26 87 43 161 38 165 -4 4 -79 25 -165 46 -140 34 -158 41 -157 59 0
11 6 85 13 165 7 80 11 148 9 153 -2 4 -80 7 -172 7 l-168 0 -23 170 c-19 141
-25 170 -39 170 -17 0 -260 -44 -305 -56 -18 -4 -26 -2 -26 7 1 26 -105 309
-115 309 -5 0 -78 -29 -160 -63 l-151 -63 -83 139 c-46 76 -88 140 -93 143
-10 6 -100 -50 -220 -137 l-67 -49 -53 58 c-29 31 -83 88 -119 126 l-65 68
-119 -124z m305 -178 c0 -72 -132 -133 -237 -110 -90 20 -153 81 -135 129 4
11 47 61 97 111 l89 92 93 -95 c77 -79 93 -101 93 -127z m-477 18 c29 -33 21
-66 -26 -113 -41 -42 -118 -75 -172 -75 -38 0 -119 32 -137 54 -32 38 -25 56
79 219 l44 68 97 -67 c53 -36 105 -75 115 -86z m872 28 c36 -60 65 -114 65
-121 0 -51 -112 -103 -193 -90 -112 19 -209 115 -173 171 20 29 219 165 228
156 4 -4 37 -56 73 -116z m-1435 -85 c65 -28 120 -58 128 -70 29 -43 -28 -135
-111 -178 -97 -51 -225 -31 -235 37 -5 28 78 260 93 260 5 -1 62 -23 125 -49z
m1887 -77 c55 -150 52 -173 -22 -192 -110 -28 -226 22 -275 119 -25 47 -25 71
-2 91 20 19 233 108 246 104 6 -1 29 -56 53 -122z m-737 -100 c279 -40 567
-150 812 -310 445 -292 755 -754 864 -1287 31 -150 44 -468 25 -612 -62 -471
-258 -874 -580 -1193 -382 -377 -877 -581 -1413 -582 -1006 -1 -1845 723
-1994 1720 -23 153 -23 418 -1 566 68 449 269 839 594 1155 114 111 164 151
298 239 298 194 575 285 990 324 70 7 296 -4 405 -20z m-1555 -54 c60 -12 113
-27 117 -33 13 -21 8 -81 -11 -122 -32 -72 -128 -134 -206 -135 -101 0 -110
18 -89 177 20 151 18 146 51 139 16 -3 77 -15 138 -26z m2690 -2 c33 -198 33
-251 3 -272 -12 -9 -43 -16 -68 -16 -97 0 -204 82 -230 175 -11 39 -10 48 4
70 9 14 17 25 19 26 35 8 237 47 249 48 12 1 19 -9 23 -31z m-2948 -313 c70
-49 -1 -226 -111 -276 -49 -22 -119 -25 -139 -5 -8 8 -17 43 -20 78 -4 35 -9
95 -13 135 l-6 72 49 4 c127 10 219 7 240 -8z m3255 9 l67 -7 -5 -66 c-12
-147 -23 -214 -36 -222 -22 -15 -91 -9 -133 10 -84 38 -138 119 -139 209 -1
42 3 57 18 68 22 15 113 18 228 8z m352 -414 c12 -12 -55 -240 -76 -262 -38
-38 -120 -9 -182 64 -41 47 -56 92 -55 158 1 106 24 116 182 77 67 -16 126
-33 131 -37z m-3891 45 c32 -32 33 -136 1 -196 -50 -98 -174 -163 -215 -113
-15 19 -90 256 -83 264 9 9 217 58 251 59 17 1 38 -6 46 -14z m-201 -426 c28
-37 34 -125 14 -186 -18 -54 -85 -130 -123 -139 -33 -9 -73 4 -80 24 -4 9 -31
61 -61 116 -30 55 -50 102 -45 107 4 4 53 31 108 58 115 58 156 62 187 20z
m4199 -24 c61 -31 109 -59 107 -63 -15 -34 -114 -211 -126 -224 -44 -52 -156
20 -190 121 -15 42 -15 114 -2 163 21 75 65 75 211 3z m-4332 -404 c55 -55 73
-149 46 -230 -27 -84 -89 -141 -135 -126 -9 3 -50 45 -90 93 -40 48 -80 94
-87 103 -12 14 0 26 94 97 112 86 139 96 172 63z m4438 -58 c56 -43 102 -82
103 -88 0 -18 -162 -200 -187 -208 -60 -22 -143 92 -143 196 0 87 51 177 101
177 13 0 67 -33 126 -77z m-4450 -415 c42 -43 73 -113 73 -164 0 -93 -63 -193
-114 -178 -20 6 -196 135 -215 158 -6 7 19 43 80 114 103 117 123 125 176 70z
m4396 10 c38 -35 157 -176 157 -186 0 -11 -187 -155 -213 -165 -32 -12 -64 10
-91 64 -35 72 -36 146 0 217 44 89 99 114 147 70z m-4316 -464 c18 -14 45 -46
60 -72 24 -40 28 -58 28 -122 0 -57 -5 -82 -19 -103 -32 -47 -56 -45 -184 16
-64 31 -118 60 -120 65 -4 13 108 215 131 235 25 22 58 16 104 -19z m4225 26
c14 -7 47 -54 86 -125 34 -63 62 -116 62 -118 0 -2 -54 -29 -119 -61 -142 -69
-169 -70 -195 -5 -22 55 -20 140 4 192 23 49 84 113 115 120 11 3 21 5 22 6 1
0 12 -4 25 -9z m-4075 -441 c61 -29 119 -99 133 -160 17 -69 6 -135 -26 -156
-24 -15 -32 -15 -142 11 -64 15 -124 32 -133 36 -15 8 -13 20 18 127 25 85 41
124 59 141 31 27 37 27 91 1z m3926 -1 c30 -31 96 -256 78 -267 -7 -5 -66 -20
-131 -35 -130 -30 -152 -27 -170 20 -37 97 20 227 123 279 62 31 72 31 100 3z
m-3664 -383 c94 -33 163 -123 164 -216 1 -77 -7 -81 -164 -80 -74 1 -137 5
-142 10 -5 5 -4 60 2 122 6 63 11 120 11 127 0 20 38 52 64 52 13 0 42 -7 65
-15z m3418 -4 c18 -17 22 -36 27 -118 4 -54 9 -112 12 -130 2 -17 1 -34 -4
-37 -4 -3 -68 -6 -142 -7 -130 -2 -134 -1 -153 22 -24 30 -19 91 14 156 52
100 191 165 246 114z m-3039 -326 c101 -43 175 -178 130 -238 -15 -19 -264
-66 -277 -51 -4 5 -15 62 -24 127 -17 118 -13 159 15 170 28 11 120 6 156 -8z
m2713 5 c15 -8 19 -21 19 -58 -1 -58 -25 -230 -33 -239 -9 -8 -212 26 -254 42
-38 16 -47 42 -34 93 27 98 125 172 229 172 29 0 62 -5 73 -10z m-2309 -242
c52 -15 120 -76 143 -128 18 -40 18 -41 -1 -67 -13 -17 -58 -42 -137 -74 -136
-56 -116 -66 -172 93 -42 119 -41 149 3 172 33 18 111 20 164 4z m1895 2 c59
-21 61 -45 13 -182 -23 -68 -45 -126 -49 -130 -9 -10 -244 89 -258 109 -20 26
-15 56 15 101 33 49 72 81 121 98 44 16 118 18 158 4z m-1385 -173 c74 -43
107 -109 76 -148 -15 -18 -204 -149 -216 -149 -14 0 -142 218 -142 243 0 80
179 115 282 54z m962 3 c57 -35 56 -57 -7 -163 -31 -51 -64 -104 -75 -117
l-19 -23 -107 73 c-59 41 -112 82 -117 92 -26 48 45 128 141 159 44 15 146 3
184 -21z m-513 -40 c67 -25 99 -55 99 -93 0 -22 -19 -49 -87 -123 -49 -51 -93
-94 -99 -94 -12 0 -155 147 -180 185 -22 33 -8 70 36 99 74 49 150 57 231 26z"/>
<path d="M2686 4409 c-14 -11 -26 -27 -26 -34 0 -8 -9 -19 -20 -25 -22 -12
-26 -41 -9 -68 9 -14 7 -39 -10 -109 -27 -115 -26 -121 6 -134 34 -13 37 -8
64 111 12 52 24 99 28 103 4 4 34 2 67 -6 l59 -14 -30 -12 c-38 -16 -75 -50
-75 -70 0 -9 20 -27 44 -40 55 -28 78 -53 80 -83 1 -15 10 -26 28 -32 15 -5
30 -7 33 -4 4 3 13 35 21 69 32 140 32 140 62 137 24 -3 27 1 30 30 2 22 -1
32 -11 32 -7 0 -37 7 -65 15 -47 14 -51 17 -40 35 11 17 8 24 -17 51 -62 66
-167 89 -219 48z m128 -63 c34 -14 53 -33 43 -42 -10 -11 -127 29 -127 42 0
18 41 18 84 0z m76 -201 c0 -8 -4 -15 -9 -15 -5 0 -14 7 -21 15 -10 13 -9 15
9 15 12 0 21 -6 21 -15z"/>
<path d="M2140 4295 c-63 -19 -123 -39 -132 -45 -10 -5 -24 -10 -31 -10 -7 0
-51 -19 -97 -42 -71 -36 -89 -50 -108 -85 l-23 -42 22 -22 c15 -15 24 -18 32
-10 18 18 26 13 24 -15 -1 -16 5 -31 16 -38 16 -9 24 -5 57 32 l39 43 31 -48
c20 -32 28 -55 24 -68 -4 -11 -7 -36 -8 -54 -1 -28 4 -38 25 -50 34 -19 76 -8
91 24 10 22 18 25 63 25 62 0 84 17 63 49 -7 12 -18 21 -25 21 -7 0 -13 6 -13
13 0 8 -9 22 -20 32 -17 15 -24 16 -45 7 -14 -6 -25 -18 -25 -27 0 -39 -30 -7
-75 79 -53 103 -53 118 4 129 16 3 41 9 55 13 l27 6 -20 -33 c-12 -19 -21 -48
-21 -65 l0 -32 71 -4 c59 -3 75 -8 89 -26 19 -23 45 -28 68 -13 11 7 9 26 -12
104 -30 110 -31 117 -12 117 21 0 29 17 22 46 -8 30 -15 30 -156 -11z m60
-139 c0 -9 -7 -12 -21 -9 -16 4 -17 8 -7 14 19 13 28 11 28 -5z"/>
<path d="M3074 4215 c-13 -19 -14 -28 -5 -39 9 -11 7 -22 -9 -48 -22 -37 -25
-69 -9 -100 9 -16 17 -19 45 -13 42 7 43 -2 8 -57 l-27 -42 23 -18 c12 -10 26
-18 31 -18 11 0 109 150 109 166 0 12 -69 44 -96 44 -17 0 -15 21 2 27 6 2 38
-15 72 -37 60 -38 62 -41 48 -62 -8 -13 -19 -49 -26 -80 -9 -46 -15 -58 -30
-58 -22 0 -44 -35 -36 -56 7 -19 66 -18 93 1 13 9 28 35 34 58 27 100 31 107
49 107 10 0 31 -10 46 -23 l26 -23 -62 -98 c-66 -102 -66 -99 -18 -126 14 -9
27 5 79 86 56 86 64 95 86 89 14 -3 31 -1 39 6 25 20 16 45 -23 65 -21 10 -47
26 -58 35 -21 18 -320 210 -354 229 -17 9 -23 6 -37 -15z"/>
<path d="M1560 3996 c-141 -108 -340 -301 -340 -330 0 -9 -4 -16 -10 -16 -14
0 -210 -264 -210 -283 0 -9 9 -21 21 -28 17 -9 25 -7 43 10 37 35 51 28 46
-26 -1 -13 7 -26 19 -32 17 -10 28 -6 66 24 26 19 56 36 68 36 12 1 35 2 51 3
17 1 34 10 43 22 13 21 11 24 -43 65 -114 87 -117 91 -99 117 9 12 24 22 33
22 9 0 53 -27 96 -60 44 -33 86 -60 93 -60 18 0 40 49 27 58 -30 21 -132 99
-151 116 -22 18 -22 21 -6 38 19 22 36 23 52 4 21 -25 79 -47 106 -40 22 5 25
12 25 46 l0 41 46 -43 46 -42 23 22 c13 12 21 27 19 34 -3 6 -33 40 -68 75
-41 41 -69 62 -79 58 -8 -3 -24 -26 -37 -51 -20 -43 -40 -53 -40 -21 0 13 129
139 160 155 15 8 16 2 13 -43 -6 -77 3 -84 71 -58 67 25 94 26 116 6 14 -13
19 -13 38 1 12 8 22 21 22 27 0 7 -27 48 -60 91 -54 72 -59 81 -45 96 20 22
19 33 -3 53 -17 15 -26 10 -152 -87z m130 -96 c0 -5 -9 -10 -21 -10 -11 0 -17
5 -14 10 3 6 13 10 21 10 8 0 14 -4 14 -10z m-492 -458 c17 -11 20 -18 11 -28
-6 -8 -17 -14 -23 -14 -16 1 -48 48 -41 60 6 10 10 9 53 -18z"/>
<path d="M3672 3894 c-12 -8 -22 -24 -22 -36 0 -13 -5 -18 -14 -15 -8 3 -31 9
-50 12 -32 6 -37 4 -47 -19 -11 -23 -10 -28 7 -41 18 -14 18 -14 -8 -15 -23 0
-48 -23 -48 -44 0 -3 23 -17 50 -31 28 -14 50 -29 50 -33 0 -4 -18 -26 -40
-47 -45 -44 -48 -55 -20 -80 19 -18 22 -16 99 53 71 65 80 70 97 57 18 -13 14
-19 -63 -90 -46 -42 -83 -82 -83 -89 0 -7 9 -21 20 -31 19 -17 21 -16 77 33
32 27 69 62 82 76 14 14 28 26 32 26 9 0 89 -116 89 -129 0 -24 -41 -22 -71 4
-33 27 -34 27 -86 -19 -47 -41 -36 -118 23 -165 52 -41 117 -23 170 46 l33 43
20 -26 c22 -28 48 -29 64 -3 8 12 2 27 -21 62 -37 52 -38 60 -16 78 12 10 20
10 35 1 15 -10 23 -9 39 0 28 18 25 32 -11 62 -37 31 -54 32 -97 6 -18 -11
-35 -20 -37 -20 -3 0 -22 25 -41 57 -36 54 -36 57 -20 84 20 33 21 91 2 127
-30 56 -115 122 -159 122 -7 0 -23 -7 -35 -16z m138 -159 c0 -31 -20 -48 -35
-29 -8 12 -8 25 -1 49 9 29 12 31 23 16 7 -9 13 -25 13 -36z m9 -368 c30 -13
31 -14 13 -30 -10 -9 -23 -17 -29 -17 -16 0 -46 38 -38 49 8 14 16 14 54 -2z"/>
<path d="M2415 3874 c-338 -50 -602 -184 -815 -411 -489 -523 -476 -1324 30
-1832 148 -149 330 -259 537 -324 148 -47 241 -61 403 -61 361 1 693 143 944
404 184 192 291 397 347 663 28 131 30 350 5 480 -61 318 -238 613 -480 801
-160 125 -354 216 -541 256 -97 21 -355 35 -430 24z m436 -158 c263 -67 510
-232 674 -451 200 -267 277 -640 201 -969 -75 -322 -291 -609 -580 -771 -408
-228 -920 -194 -1296 86 -578 431 -641 1283 -130 1789 146 145 323 250 515
305 134 38 194 44 365 40 122 -3 176 -9 251 -29z"/>
<path d="M2356 3714 c-238 -43 -441 -150 -617 -324 -269 -265 -390 -629 -335
-1000 67 -440 377 -805 799 -940 251 -80 484 -78 739 7 607 201 940 874 732
1479 -136 399 -468 689 -883 774 -118 24 -314 26 -435 4z m466 -137 c408 -107
708 -435 779 -851 19 -111 6 -332 -25 -440 -98 -344 -354 -610 -691 -719 -112
-37 -193 -49 -315 -50 -286 0 -530 98 -737 296 -324 311 -410 787 -218 1196
144 302 414 512 750 582 129 27 324 21 457 -14z"/>
<path d="M2355 3540 c-202 -45 -361 -134 -505 -280 -175 -178 -274 -397 -287
-640 -27 -484 294 -913 774 -1032 126 -31 332 -31 455 1 363 93 632 349 733
696 128 441 -60 905 -463 1144 -83 50 -181 87 -292 112 -112 25 -304 24 -415
-1z m255 -332 l34 -66 -37 -56 c-20 -31 -41 -56 -45 -56 -10 0 -72 97 -72 113
0 26 61 138 73 135 7 -2 28 -34 47 -70z m-383 -73 c48 -14 52 -18 67 -62 9
-26 16 -48 16 -50 0 -6 -78 -3 -95 3 -15 6 -65 92 -65 114 0 14 17 13 77 -5z
m747 -7 c-13 -45 -43 -96 -59 -102 -9 -3 -34 -6 -56 -6 -38 0 -39 1 -33 28 14
60 28 77 74 89 71 18 83 17 74 -9z m-934 -134 c0 -34 -22 -83 -55 -122 -15
-18 -33 -52 -41 -77 -24 -82 19 -180 98 -221 33 -17 110 -18 126 -2 20 20 14
63 -13 86 -14 12 -25 28 -25 36 0 21 31 36 51 25 14 -7 16 -22 15 -75 -2 -57
-5 -69 -26 -86 -58 -47 -180 3 -228 92 -19 37 -23 56 -20 105 3 52 10 69 51
129 34 49 47 78 47 103 0 33 -2 35 -27 28 -73 -18 -152 -86 -195 -168 -20 -36
-23 -57 -23 -142 0 -97 1 -103 39 -175 46 -89 97 -166 160 -238 26 -30 48 -67
52 -87 9 -50 -20 -96 -73 -114 -58 -21 -93 -3 -148 73 -34 48 -56 67 -95 85
-27 12 -54 30 -59 39 -5 10 -11 46 -12 82 -5 81 6 85 81 32 l55 -38 3 -68 c3
-61 7 -73 43 -122 61 -83 108 -97 160 -45 46 46 40 85 -23 157 -69 78 -135
182 -175 274 -41 94 -45 178 -11 267 51 138 268 273 268 167z m1166 7 c63 -36
109 -88 143 -161 21 -45 26 -70 26 -135 0 -73 -3 -87 -42 -168 -49 -101 -86
-159 -154 -239 -63 -73 -73 -99 -55 -143 16 -38 42 -55 83 -55 39 0 61 18 107
84 36 52 38 59 32 108 -3 29 -3 58 1 64 12 17 116 84 130 84 14 0 17 -58 6
-123 -5 -34 -12 -41 -63 -67 -33 -17 -68 -44 -81 -62 -65 -96 -119 -124 -177
-94 -42 22 -62 53 -62 98 0 30 10 48 54 100 65 78 135 184 172 264 24 50 28
72 28 149 1 105 -20 158 -88 228 -45 46 -129 92 -153 82 -22 -8 -10 -60 25
-109 55 -79 62 -91 68 -131 19 -127 -97 -250 -216 -231 -48 8 -58 26 -58 106
1 70 10 86 42 74 27 -10 27 -37 1 -64 -27 -28 -33 -68 -13 -88 16 -16 93 -15
126 2 60 31 102 102 102 171 0 49 -17 89 -61 145 -34 43 -53 108 -37 127 17
21 59 15 114 -16z m-436 -180 c-8 -5 -39 -11 -68 -14 -29 -3 -57 -9 -62 -12
-6 -3 -10 -46 -10 -95 l0 -89 55 -35 c64 -41 107 -97 125 -160 23 -84 11 -135
-89 -366 -50 -118 -98 -225 -106 -236 -11 -17 -22 -21 -55 -18 -23 1 -43 4
-45 6 -5 5 -150 338 -178 410 -35 87 -36 172 -3 243 23 51 87 117 132 137 23
11 24 15 24 109 l0 98 -57 6 c-136 15 -89 24 127 24 125 0 218 -3 210 -8z"/>
<path d="M1512 1368 c-18 -18 -15 -35 13 -56 l24 -19 -37 1 c-31 1 -38 -3 -40
-20 -4 -27 40 -64 76 -64 24 0 24 -1 9 -18 -23 -25 -21 -48 5 -66 18 -13 19
-16 6 -16 -9 0 -20 5 -23 10 -10 16 -33 11 -40 -9 -6 -21 40 -117 56 -115 5 1
16 2 24 3 8 0 15 7 15 14 0 6 13 23 30 37 20 17 31 37 34 61 2 20 10 45 17 57
10 16 17 18 35 10 13 -6 25 -17 28 -25 3 -7 -21 -52 -54 -100 -33 -47 -60 -92
-60 -99 0 -13 30 -34 48 -34 5 0 33 34 61 75 29 41 54 75 57 75 6 0 2 -13 -27
-108 -22 -71 -16 -92 27 -92 20 0 27 12 56 103 27 83 37 103 54 105 16 2 23
-4 28 -22 3 -15 13 -26 21 -26 19 0 19 -16 0 -24 -18 -7 -20 -52 -2 -59 6 -3
33 -2 60 1 42 4 47 3 47 -15 0 -11 -7 -40 -15 -64 -17 -47 -10 -64 30 -71 17
-2 24 9 44 71 l25 74 15 -44 c26 -72 52 -107 93 -124 48 -19 79 -19 124 0 56
23 81 108 49 165 -21 37 -19 39 28 37 37 -2 42 1 45 22 2 13 0 27 -5 31 -4 5
-78 16 -163 24 -212 22 -259 36 -230 71 9 11 4 22 -25 53 -44 49 -90 72 -145
72 -50 0 -75 -12 -93 -46 l-13 -26 -30 24 c-57 48 -247 178 -258 178 -7 0 -17
-5 -24 -12z m479 -204 c31 -15 53 -40 42 -47 -4 -2 -25 -7 -46 -11 -33 -6 -38
-5 -35 11 2 11 -6 22 -19 28 -23 10 -29 25 -16 38 7 8 35 1 74 -19z m289 -171
c0 -5 -7 -17 -15 -27 -36 -48 -1 -116 59 -116 24 0 27 -3 16 -10 -21 -14 -52
-12 -74 5 -24 18 -60 142 -43 149 19 7 57 7 57 -1z"/>
<path d="M3359 1301 c-23 -24 -29 -38 -29 -74 0 -37 -4 -46 -25 -55 -23 -11
-27 -9 -35 12 -12 34 -26 40 -51 22 -83 -58 -77 -196 10 -241 17 -8 51 -15 76
-15 50 0 125 32 125 54 0 17 -38 51 -47 43 -3 -4 -15 0 -25 10 -20 18 -24 58
-7 68 6 4 8 14 5 22 -5 11 -1 13 17 7 37 -12 78 -6 99 13 20 18 21 17 53 -19
33 -40 53 -46 73 -26 21 21 14 38 -44 106 -93 110 -140 128 -195 73z m77 -52
c10 -17 -13 -36 -27 -22 -12 12 -4 33 11 33 5 0 12 -5 16 -11z m-163 -189 c8
-22 13 -40 9 -40 -14 0 -52 45 -52 62 0 32 27 19 43 -22z"/>
<path d="M2911 1073 c-7 -14 -8 -30 -4 -34 4 -4 42 -15 83 -23 44 -10 82 -24
94 -36 27 -27 13 -37 -15 -11 -13 12 -36 21 -51 21 -32 0 -78 -39 -78 -65 0
-28 20 -55 41 -55 12 0 23 -8 26 -20 7 -27 47 -26 98 3 72 41 86 112 35 171
-26 30 -44 38 -119 55 -49 12 -91 21 -93 21 -3 0 -10 -12 -17 -27z"/>
<path d="M2705 1050 c-8 -12 5 -60 23 -88 9 -13 39 -37 69 -54 60 -34 78 -54
42 -46 -13 3 -32 9 -41 12 -11 5 -24 0 -38 -14 -19 -19 -20 -24 -7 -43 28 -42
144 -40 167 3 21 40 12 77 -27 109 -21 17 -43 31 -49 31 -23 0 -62 40 -67 70
-6 25 -11 30 -36 30 -16 0 -32 -4 -36 -10z"/>
<path d="M2507 923 c-24 -4 -28 -9 -25 -31 l3 -27 90 0 90 0 0 30 0 30 -65 1
c-36 1 -78 -1 -93 -3z"/>
</g>
</svg>
