<?xml version="1.0" standalone="no"?>
<!DOCTYPE svg PUBLIC "-//W3C//DTD SVG 20010904//EN"
 "http://www.w3.org/TR/2001/REC-SVG-20010904/DTD/svg10.dtd">
<svg version="1.0" xmlns="http://www.w3.org/2000/svg"
 width="224.000000pt" height="224.000000pt" viewBox="0 0 224.000000 224.000000"
 preserveAspectRatio="xMidYMid meet">

<g transform="translate(0.000000,224.000000) scale(0.100000,-0.100000)"
fill="#000000" stroke="none">
<path d="M1064 2155 c-10 -8 -49 -24 -86 -36 -44 -13 -72 -29 -82 -44 -14 -21
-19 -22 -45 -12 -22 8 -43 7 -84 -3 -53 -12 -82 -11 -119 5 -14 5 -18 2 -18
-14 0 -12 -15 -32 -37 -48 -76 -57 -93 -80 -93 -118 0 -32 -2 -35 -19 -25 -35
18 -69 11 -116 -26 -52 -39 -92 -57 -106 -48 -6 3 -7 -4 -4 -18 4 -15 -7 -48
-30 -96 -19 -41 -35 -80 -35 -88 0 -8 11 -26 24 -39 25 -25 24 -35 -5 -35 -22
0 -79 -47 -79 -66 0 -20 -20 -53 -54 -91 -26 -29 -28 -35 -18 -58 7 -14 12
-57 12 -95 0 -63 14 -120 29 -120 3 0 13 -4 21 -10 12 -7 11 -12 -5 -30 -17
-19 -20 -37 -20 -124 0 -55 -4 -108 -8 -117 -6 -11 -1 -19 16 -26 14 -6 40
-39 59 -75 27 -49 44 -67 76 -83 42 -20 42 -20 42 -76 0 -49 4 -59 31 -85 36
-34 59 -74 59 -104 0 -16 6 -20 31 -20 17 0 50 -12 75 -26 43 -26 91 -33 133
-19 18 5 21 2 21 -23 0 -35 29 -64 90 -91 56 -25 90 -56 90 -81 0 -26 16 -26
30 0 10 18 21 20 115 20 91 0 107 3 122 19 16 19 17 19 52 -5 32 -20 47 -23
113 -21 60 2 80 -2 95 -16 26 -23 28 -22 51 18 17 27 32 37 76 50 62 18 103
47 116 81 8 21 13 22 35 14 43 -16 59 -12 121 30 42 28 65 38 81 34 18 -5 23
-2 23 12 0 9 27 46 61 81 57 60 61 66 54 99 -3 19 -9 42 -12 50 -3 9 5 18 22
24 51 19 82 49 110 105 16 32 35 55 44 55 24 0 27 221 4 260 -15 26 -14 28 11
53 22 23 26 35 26 89 0 36 6 75 15 92 19 35 19 46 1 46 -8 0 -22 21 -32 48
-44 122 -62 152 -94 159 -24 4 -29 9 -23 22 17 36 8 98 -21 140 -18 26 -30 56
-31 78 -1 32 -5 38 -31 45 -16 4 -53 30 -81 58 -29 28 -61 51 -75 51 -12 1
-32 2 -43 3 -11 1 -21 10 -23 21 -7 34 -40 71 -92 105 -28 18 -55 40 -60 50
-13 25 -210 39 -242 18 -20 -13 -24 -12 -42 9 -15 16 -42 27 -89 37 -37 7 -76
21 -86 30 -22 20 -22 20 -47 1z m343 -177 c56 -20 131 -52 167 -72 211 -118
372 -319 442 -551 35 -119 40 -327 10 -445 -86 -338 -340 -592 -682 -681 -128
-34 -331 -34 -459 0 -100 26 -228 82 -302 132 -69 47 -199 175 -243 239 -163
240 -204 529 -113 800 43 128 100 223 198 328 107 116 258 209 415 256 115 34
122 35 305 31 153 -2 164 -4 262 -37z"/>
<path d="M955 1969 c-432 -72 -756 -468 -732 -894 7 -125 35 -233 87 -337 50
-100 82 -145 168 -231 114 -117 248 -192 421 -239 118 -32 314 -30 443 5 320
87 555 319 638 632 29 112 29 298 0 410 -92 345 -371 600 -720 655 -76 12
-233 11 -305 -1z m360 -55 c195 -48 372 -163 483 -313 129 -173 183 -369 162
-579 -37 -355 -312 -652 -672 -726 -118 -24 -266 -21 -383 9 -163 41 -266 97
-384 209 -248 237 -325 575 -202 891 112 289 391 495 716 529 66 7 216 -4 280
-20z"/>
<path d="M1065 1894 c-24 -22 -27 -29 -17 -45 7 -10 12 -39 12 -64 0 -35 3
-43 15 -39 11 4 15 21 15 55 0 55 9 63 55 50 l30 -8 -39 -16 c-28 -12 -37 -21
-32 -33 3 -8 6 -20 6 -25 0 -5 13 -9 29 -9 17 0 33 -5 36 -10 13 -20 25 2 25
45 0 24 5 47 10 50 6 3 10 13 10 21 0 11 -14 14 -60 14 -33 0 -60 4 -60 10 0
6 16 10 36 10 21 0 33 4 29 10 -12 20 -71 11 -100 -16z m107 -106 c-9 -9 -15
-9 -24 0 -10 10 -10 15 2 22 20 12 38 -6 22 -22z"/>
<path d="M1253 1849 c3 -13 1 -29 -5 -36 -15 -18 -1 -30 37 -35 26 -3 30 0 28
20 -2 12 2 22 7 22 14 0 12 -46 -2 -57 -7 -6 -25 -13 -40 -17 -34 -8 -28 -26
16 -48 l33 -16 18 56 c9 32 24 64 32 74 16 18 2 34 -22 24 -8 -3 -17 -1 -21 5
-3 5 -13 9 -22 7 -10 -1 -28 4 -41 11 -23 13 -24 12 -18 -10z"/>
<path d="M768 1804 c-65 -33 -66 -58 -2 -34 37 14 42 5 14 -25 -35 -38 -18
-61 41 -56 24 1 45 4 47 6 1 1 -4 22 -12 46 -9 24 -16 54 -16 67 0 28 -13 27
-72 -4z m54 -86 c-15 -15 -24 -6 -16 16 5 12 10 14 17 7 8 -8 8 -14 -1 -23z"/>
<path d="M1445 1814 c-11 -8 -19 -20 -17 -25 1 -5 -7 -28 -19 -50 -14 -28 -17
-45 -11 -51 7 -7 17 3 31 30 26 52 35 57 66 36 35 -23 31 -32 -12 -36 -49 -4
-53 -26 -12 -67 25 -25 34 -29 41 -19 4 7 18 28 29 46 11 17 25 32 30 32 21 0
6 20 -36 47 -44 27 -56 43 -34 43 6 0 19 -5 31 -11 29 -16 37 0 9 22 -28 23
-69 24 -96 3z m67 -136 c-9 -9 -15 -9 -24 0 -9 9 -7 12 12 12 19 0 21 -3 12
-12z"/>
<path d="M675 1750 c-3 -5 -3 -14 0 -20 4 -6 -5 -10 -19 -10 -31 0 -66 -32
-66 -59 0 -25 20 -38 31 -20 8 12 11 11 20 -3 15 -26 27 -22 34 12 8 36 18 38
39 8 11 -15 19 -19 26 -12 8 8 3 26 -16 62 -27 52 -37 61 -49 42z m-15 -60 c0
-5 -7 -10 -16 -10 -8 0 -12 5 -9 10 3 6 10 10 16 10 5 0 9 -4 9 -10z"/>
<path d="M1603 1686 c3 -8 -5 -24 -19 -37 -30 -28 -32 -59 -4 -59 18 0 19 -3
8 -20 -7 -10 -8 -23 -4 -27 5 -4 11 -2 13 5 3 7 18 19 34 27 37 20 37 32 -2
40 -29 6 -30 8 -15 23 14 15 18 14 41 -8 14 -13 25 -28 25 -33 0 -5 -14 -27
-31 -48 -22 -28 -26 -39 -16 -39 19 0 44 24 52 50 7 22 20 26 31 9 3 -6 -10
-24 -30 -41 -58 -48 -42 -69 18 -23 18 14 40 25 49 25 30 0 18 21 -55 96 -65
68 -108 95 -95 60z"/>
<path d="M810 1662 c0 -14 11 -21 26 -15 21 8 17 23 -6 23 -11 0 -20 -4 -20
-8z"/>
<path d="M995 1660 c-340 -73 -539 -404 -435 -721 57 -174 224 -325 410 -370
66 -16 228 -16 290 1 188 50 357 206 410 378 29 95 28 249 -3 335 -63 174
-187 296 -364 358 -65 23 -240 34 -308 19z m226 -44 c196 -42 360 -191 410
-374 49 -174 0 -350 -132 -483 -107 -108 -233 -159 -396 -159 -203 0 -383 113
-474 298 -41 82 -44 92 -47 189 -4 83 0 115 17 171 53 175 210 316 396 355 89
20 144 20 226 3z"/>
<path d="M1105 1353 c-27 -56 -31 -115 -10 -147 10 -15 15 -29 12 -32 -3 -3
-38 -12 -78 -21 -61 -12 -83 -13 -131 -3 -32 7 -58 15 -58 17 0 2 10 17 22 33
19 27 20 33 9 72 -19 66 -33 98 -43 98 -11 0 -46 -75 -54 -117 -4 -23 0 -37
21 -61 15 -18 22 -32 16 -32 -6 0 -16 -11 -23 -25 -14 -31 8 -67 54 -91 27
-14 50 -16 146 -10 62 4 123 11 135 15 14 6 34 4 52 -3 21 -8 65 -10 138 -7
92 5 111 9 123 25 18 26 18 70 -1 86 -13 11 -13 15 0 41 19 35 19 77 0 109 -8
14 -19 35 -25 48 -13 30 -28 20 -36 -23 -3 -20 -10 -38 -15 -41 -16 -9 -10
-55 11 -81 11 -14 20 -29 20 -33 0 -4 -25 -13 -55 -20 -43 -10 -63 -11 -94 -2
-21 7 -48 12 -59 12 -29 0 -36 16 -18 42 9 12 16 31 16 41 0 24 -43 147 -51
147 -4 0 -15 -17 -24 -37z"/>
<path d="M866 986 c-19 -30 -13 -72 14 -86 11 -6 117 -10 245 -10 255 0 285 6
285 59 0 52 -26 63 -137 57 -119 -7 -128 -7 -274 0 -116 5 -116 5 -133 -20z"/>
<path d="M512 1607 c-48 -49 -42 -79 6 -34 l25 22 -6 -32 c-5 -26 -2 -35 16
-48 20 -14 23 -14 34 0 6 9 23 19 37 23 l26 7 -44 48 c-25 26 -49 47 -54 47
-4 0 -22 -15 -40 -33z m82 -46 c3 -5 -1 -12 -10 -15 -20 -8 -29 -1 -19 13 8
13 22 14 29 2z"/>
<path d="M690 1615 c-7 -8 -10 -22 -6 -30 7 -19 40 -19 56 0 7 8 19 15 26 15
27 0 14 18 -17 24 -43 8 -45 8 -59 -9z"/>
<path d="M431 1490 c-12 -22 -21 -46 -21 -53 0 -7 20 -18 45 -25 63 -17 68
-16 63 12 -5 23 -2 24 31 20 32 -4 33 -3 12 6 -13 6 -32 22 -44 36 -22 28 -37
19 -37 -23 0 -13 -5 -23 -10 -23 -16 0 -24 30 -11 43 13 13 15 47 2 47 -5 0
-18 -18 -30 -40z"/>
<path d="M1770 1505 c0 -3 9 -23 20 -45 11 -21 16 -41 11 -45 -5 -3 -15 9 -23
25 -15 34 -50 49 -73 30 -19 -16 -19 -50 0 -50 8 0 15 9 15 20 0 11 5 20 10
20 6 0 10 -11 10 -25 0 -18 4 -23 15 -19 26 10 16 -16 -10 -28 -14 -6 -25 -17
-25 -25 0 -18 9 -17 55 7 22 11 45 20 52 20 7 0 13 5 13 10 0 19 -50 110 -60
110 -6 0 -10 -2 -10 -5z"/>
<path d="M379 1373 c-10 -27 -39 -141 -39 -155 0 -14 27 -8 40 8 12 13 16 12
35 -12 20 -25 22 -25 38 -10 9 10 17 26 17 36 0 10 5 22 10 25 23 14 7 32 -40
44 -33 8 -50 18 -50 28 0 16 27 15 88 -3 16 -5 22 -2 22 10 0 9 -6 16 -13 16
-7 0 -30 9 -52 20 -22 11 -41 20 -42 20 -2 0 -8 -12 -14 -27z m49 -89 c12 -4
22 -13 22 -20 0 -17 -27 -19 -33 -1 -3 9 -8 9 -21 -2 -19 -16 -31 -9 -23 14 7
16 19 18 55 9z"/>
<path d="M1831 1328 c-10 -29 -12 -30 -29 -15 -26 24 -40 8 -40 -45 l0 -46 65
-4 c35 -2 66 -2 67 -1 2 2 -4 34 -12 73 -17 76 -33 89 -51 38z m28 -65 c1 -8
-12 -13 -34 -13 -25 0 -35 4 -35 16 0 10 5 14 15 10 9 -3 20 3 27 14 12 18 13
19 20 2 3 -9 7 -23 7 -29z"/>
<path d="M1717 1274 c-13 -13 -7 -24 14 -24 11 0 19 5 17 12 -5 14 -22 21 -31
12z"/>
<path d="M1726 919 c-10 -33 -15 -63 -12 -67 3 -3 18 0 32 7 23 10 26 9 31 -9
3 -12 14 -20 27 -20 28 0 46 18 46 47 0 13 7 26 15 29 26 11 16 20 -40 38 -30
9 -57 21 -60 26 -13 21 -23 8 -39 -51z m69 -1 c25 -11 37 -58 15 -58 -5 0 -10
6 -10 14 0 8 -11 17 -25 20 -16 4 -22 11 -19 21 7 18 7 18 39 3z"/>
<path d="M456 955 c-4 -12 -13 -15 -35 -10 -41 9 -58 -22 -36 -65 9 -17 11
-30 5 -30 -5 0 -10 -7 -10 -15 0 -12 6 -12 48 0 56 18 72 18 72 5 0 -6 -20
-19 -45 -30 -25 -11 -45 -24 -45 -30 0 -13 4 -13 67 8 61 20 63 26 30 116 -23
62 -40 79 -51 51z m14 -61 c0 -26 -53 -26 -63 0 -3 8 6 12 29 12 20 0 34 -5
34 -12z"/>
<path d="M1670 789 c-22 -33 -29 -54 -23 -60 6 -6 19 4 37 32 15 22 30 38 34
35 3 -4 -4 -20 -16 -36 -28 -38 -28 -56 2 -75 27 -18 76 -6 76 20 0 11 -5 13
-24 5 -18 -6 -28 -5 -36 6 -10 11 -9 14 9 14 18 0 21 4 16 21 -7 20 -5 22 28
16 19 -3 38 -3 41 1 6 5 -91 71 -105 72 -4 0 -22 -23 -39 -51z"/>
<path d="M540 769 c0 -6 5 -20 11 -32 l12 -22 -24 22 c-35 32 -69 21 -69 -22
0 -18 -7 -38 -15 -45 -8 -7 -15 -19 -15 -26 0 -19 29 -18 36 1 4 8 15 15 25
15 12 0 19 7 19 20 0 11 -7 20 -15 20 -8 0 -15 5 -15 10 0 19 28 10 44 -14 14
-22 18 -23 46 -13 37 14 37 19 4 63 -26 34 -44 43 -44 23z"/>
<path d="M1555 655 c-38 -35 -66 -67 -62 -71 4 -5 18 -2 30 5 20 13 21 13 8
-2 -21 -27 -6 -50 30 -45 22 4 29 1 25 -9 -3 -8 1 -16 10 -20 21 -8 64 13 64
31 0 8 7 19 15 23 12 7 8 16 -25 48 -22 21 -40 43 -40 47 0 15 18 8 48 -17 26
-22 62 -34 62 -20 0 5 -89 95 -93 95 -1 -1 -33 -29 -72 -65z m75 -81 c0 -17
-4 -22 -15 -18 -8 4 -15 12 -15 20 0 16 -16 19 -25 4 -3 -5 -11 -10 -17 -10
-6 0 -3 8 6 19 9 10 16 22 15 27 -4 24 3 25 26 4 14 -13 25 -34 25 -46z"/>
<path d="M607 683 c-4 -4 5 -20 20 -36 l28 -30 -27 17 c-54 35 -102 -1 -61
-46 10 -11 17 -29 15 -39 -5 -27 9 -24 48 11 18 16 43 36 54 44 21 14 20 15
-19 50 -42 37 -48 40 -58 29z m13 -83 c0 -13 -7 -13 -31 1 -11 5 -17 14 -14
20 7 11 45 -7 45 -21z"/>
<path d="M695 558 c-6 -42 -4 -54 9 -63 20 -15 11 -46 -12 -38 -11 5 -14 2 -9
-10 11 -29 -13 -19 -25 11 -8 21 -12 23 -15 10 -7 -30 15 -58 47 -58 17 0 30
5 30 10 0 6 18 38 40 71 22 33 40 62 40 64 0 4 -87 55 -93 55 -3 0 -8 -23 -12
-52z m58 -5 c9 -9 -12 -33 -30 -33 -11 0 -11 4 -3 20 11 21 22 25 33 13z"/>
<path d="M1366 587 c-9 -7 -18 -24 -18 -37 -1 -14 -6 -28 -10 -31 -5 -3 2 -17
14 -31 13 -14 31 -39 40 -57 17 -31 46 -45 34 -16 -3 8 -8 21 -11 28 -4 9 10
12 55 11 33 -1 60 0 60 3 0 8 -62 123 -66 123 -3 0 -23 -9 -45 -21 -23 -11
-43 -18 -46 -15 -11 11 7 36 27 36 11 0 20 5 20 10 0 14 -33 12 -54 -3z m61
-65 c-10 -10 -17 -26 -17 -36 0 -9 -4 -14 -10 -11 -18 11 -11 42 13 53 31 15
32 14 14 -6z m47 -21 c7 -10 -22 -37 -30 -28 -9 8 3 37 15 37 5 0 12 -4 15 -9z"/>
<path d="M810 531 c0 -5 7 -11 15 -15 24 -9 19 -39 -5 -31 -27 9 -27 -26 1
-71 26 -42 33 -43 24 -4 -5 24 -1 38 19 65 14 18 26 36 26 38 0 5 -58 27 -71
27 -5 0 -9 -4 -9 -9z"/>
<path d="M1010 534 c-8 -3 -20 -15 -26 -27 -12 -26 -6 -157 7 -157 5 0 9 3 9
8 1 20 12 88 15 100 5 14 71 16 80 2 3 -6 -4 -10 -18 -10 -27 0 -57 -28 -57
-53 0 -21 35 -40 59 -32 13 4 20 0 24 -15 11 -42 27 -19 27 38 0 71 14 99 29
59 7 -18 18 -27 33 -28 l23 0 -23 -10 c-34 -13 -25 -45 12 -42 16 1 37 -2 47
-8 13 -6 19 -6 19 0 0 6 -9 15 -20 21 -11 6 -20 18 -20 27 0 15 2 15 13 -2 10
-12 22 -16 40 -13 15 3 27 1 27 -3 0 -5 7 -9 16 -9 10 0 14 6 10 18 -2 9 -8
36 -11 60 l-7 43 -149 -7 c-110 -5 -149 -4 -149 5 0 12 11 14 48 11 25 -2 30
15 6 24 -17 6 -40 6 -64 0z m254 -79 c-25 -19 -34 -19 -34 0 0 10 10 15 27 15
26 0 26 -1 7 -15z m-54 -5 c0 -5 -4 -10 -10 -10 -5 0 -10 5 -10 10 0 6 5 10
10 10 6 0 10 -4 10 -10z m90 -19 c0 -12 -28 -22 -34 -12 -3 5 -3 11 1 15 9 9
33 7 33 -3z m-202 -23 c-5 -15 -58 -24 -58 -10 0 15 12 22 38 22 14 0 22 -5
20 -12z"/>
</g>
</svg>
